<mxfile host="app.diagrams.net" modified="2024-04-14T15:22:35.534Z" agent="Mozilla/5.0 (Windows NT 10.0; Win64; x64) AppleWebKit/537.36 (KHTML, like Gecko) Chrome/123.0.0.0 Safari/537.36" etag="CX_P9aB3LICMNBeMj7jM" version="24.2.5" type="github">
  <diagram name="Page-1" id="tklO7xK3QUPXGctvpzQr">
    <mxGraphModel dx="5300" dy="2800" grid="1" gridSize="10" guides="1" tooltips="1" connect="1" arrows="1" fold="1" page="1" pageScale="1" pageWidth="827" pageHeight="1169" math="0" shadow="0">
      <root>
        <mxCell id="0" />
        <mxCell id="1" parent="0" />
        <mxCell id="FDrHorXSiLE-RwHZ9RLK-5" value="Admin" style="swimlane;fontStyle=1;align=center;verticalAlign=top;childLayout=stackLayout;horizontal=1;startSize=26;horizontalStack=0;resizeParent=1;resizeParentMax=0;resizeLast=0;collapsible=1;marginBottom=0;whiteSpace=wrap;html=1;" parent="1" vertex="1">
          <mxGeometry x="2820" y="400" width="310" height="320" as="geometry">
            <mxRectangle x="10" y="10" width="70" height="30" as="alternateBounds" />
          </mxGeometry>
        </mxCell>
        <mxCell id="FDrHorXSiLE-RwHZ9RLK-6" value="- id: String" style="text;strokeColor=none;fillColor=none;align=left;verticalAlign=top;spacingLeft=4;spacingRight=4;overflow=hidden;rotatable=0;points=[[0,0.5],[1,0.5]];portConstraint=eastwest;whiteSpace=wrap;html=1;" parent="FDrHorXSiLE-RwHZ9RLK-5" vertex="1">
          <mxGeometry y="26" width="310" height="26" as="geometry" />
        </mxCell>
        <mxCell id="FDrHorXSiLE-RwHZ9RLK-11" value="- name: String" style="text;strokeColor=none;fillColor=none;align=left;verticalAlign=top;spacingLeft=4;spacingRight=4;overflow=hidden;rotatable=0;points=[[0,0.5],[1,0.5]];portConstraint=eastwest;whiteSpace=wrap;html=1;" parent="FDrHorXSiLE-RwHZ9RLK-5" vertex="1">
          <mxGeometry y="52" width="310" height="26" as="geometry" />
        </mxCell>
        <mxCell id="FDrHorXSiLE-RwHZ9RLK-133" value="- email: String" style="text;strokeColor=none;fillColor=none;align=left;verticalAlign=top;spacingLeft=4;spacingRight=4;overflow=hidden;rotatable=0;points=[[0,0.5],[1,0.5]];portConstraint=eastwest;whiteSpace=wrap;html=1;" parent="FDrHorXSiLE-RwHZ9RLK-5" vertex="1">
          <mxGeometry y="78" width="310" height="26" as="geometry" />
        </mxCell>
        <mxCell id="FDrHorXSiLE-RwHZ9RLK-12" value="- email: String" style="text;strokeColor=none;fillColor=none;align=left;verticalAlign=top;spacingLeft=4;spacingRight=4;overflow=hidden;rotatable=0;points=[[0,0.5],[1,0.5]];portConstraint=eastwest;whiteSpace=wrap;html=1;" parent="FDrHorXSiLE-RwHZ9RLK-5" vertex="1">
          <mxGeometry y="104" width="310" height="26" as="geometry" />
        </mxCell>
        <mxCell id="FDrHorXSiLE-RwHZ9RLK-10" value="- phone: String" style="text;strokeColor=none;fillColor=none;align=left;verticalAlign=top;spacingLeft=4;spacingRight=4;overflow=hidden;rotatable=0;points=[[0,0.5],[1,0.5]];portConstraint=eastwest;whiteSpace=wrap;html=1;" parent="FDrHorXSiLE-RwHZ9RLK-5" vertex="1">
          <mxGeometry y="130" width="310" height="26" as="geometry" />
        </mxCell>
        <mxCell id="FDrHorXSiLE-RwHZ9RLK-9" value="- password: String" style="text;strokeColor=none;fillColor=none;align=left;verticalAlign=top;spacingLeft=4;spacingRight=4;overflow=hidden;rotatable=0;points=[[0,0.5],[1,0.5]];portConstraint=eastwest;whiteSpace=wrap;html=1;" parent="FDrHorXSiLE-RwHZ9RLK-5" vertex="1">
          <mxGeometry y="156" width="310" height="26" as="geometry" />
        </mxCell>
        <mxCell id="FDrHorXSiLE-RwHZ9RLK-7" value="" style="line;strokeWidth=1;fillColor=none;align=left;verticalAlign=middle;spacingTop=-1;spacingLeft=3;spacingRight=3;rotatable=0;labelPosition=right;points=[];portConstraint=eastwest;strokeColor=inherit;" parent="FDrHorXSiLE-RwHZ9RLK-5" vertex="1">
          <mxGeometry y="182" width="310" height="8" as="geometry" />
        </mxCell>
        <mxCell id="FDrHorXSiLE-RwHZ9RLK-8" value="+ saveAdmin(adminModel): ResponseEntity" style="text;strokeColor=none;fillColor=none;align=left;verticalAlign=top;spacingLeft=4;spacingRight=4;overflow=hidden;rotatable=0;points=[[0,0.5],[1,0.5]];portConstraint=eastwest;whiteSpace=wrap;html=1;" parent="FDrHorXSiLE-RwHZ9RLK-5" vertex="1">
          <mxGeometry y="190" width="310" height="26" as="geometry" />
        </mxCell>
        <mxCell id="FDrHorXSiLE-RwHZ9RLK-129" value="+ getAllAdmins(): List&amp;lt;adminModel&amp;gt;" style="text;strokeColor=none;fillColor=none;align=left;verticalAlign=top;spacingLeft=4;spacingRight=4;overflow=hidden;rotatable=0;points=[[0,0.5],[1,0.5]];portConstraint=eastwest;whiteSpace=wrap;html=1;" parent="FDrHorXSiLE-RwHZ9RLK-5" vertex="1">
          <mxGeometry y="216" width="310" height="26" as="geometry" />
        </mxCell>
        <mxCell id="FDrHorXSiLE-RwHZ9RLK-131" value="+ findByEmail(String): ResponseEntity" style="text;strokeColor=none;fillColor=none;align=left;verticalAlign=top;spacingLeft=4;spacingRight=4;overflow=hidden;rotatable=0;points=[[0,0.5],[1,0.5]];portConstraint=eastwest;whiteSpace=wrap;html=1;" parent="FDrHorXSiLE-RwHZ9RLK-5" vertex="1">
          <mxGeometry y="242" width="310" height="26" as="geometry" />
        </mxCell>
        <mxCell id="FDrHorXSiLE-RwHZ9RLK-132" value="+ updatePassword(adminModel): ResponseEntity" style="text;strokeColor=none;fillColor=none;align=left;verticalAlign=top;spacingLeft=4;spacingRight=4;overflow=hidden;rotatable=0;points=[[0,0.5],[1,0.5]];portConstraint=eastwest;whiteSpace=wrap;html=1;" parent="FDrHorXSiLE-RwHZ9RLK-5" vertex="1">
          <mxGeometry y="268" width="310" height="26" as="geometry" />
        </mxCell>
        <mxCell id="FDrHorXSiLE-RwHZ9RLK-130" value="+ deleteUser(String): ResponseEntity" style="text;strokeColor=none;fillColor=none;align=left;verticalAlign=top;spacingLeft=4;spacingRight=4;overflow=hidden;rotatable=0;points=[[0,0.5],[1,0.5]];portConstraint=eastwest;whiteSpace=wrap;html=1;" parent="FDrHorXSiLE-RwHZ9RLK-5" vertex="1">
          <mxGeometry y="294" width="310" height="26" as="geometry" />
        </mxCell>
        <mxCell id="FDrHorXSiLE-RwHZ9RLK-13" value="Air_quality" style="swimlane;fontStyle=1;align=center;verticalAlign=top;childLayout=stackLayout;horizontal=1;startSize=26;horizontalStack=0;resizeParent=1;resizeParentMax=0;resizeLast=0;collapsible=1;marginBottom=0;whiteSpace=wrap;html=1;" parent="1" vertex="1">
          <mxGeometry x="320" y="880" width="400" height="2530" as="geometry" />
        </mxCell>
        <mxCell id="FDrHorXSiLE-RwHZ9RLK-14" value="- id: String" style="text;strokeColor=none;fillColor=none;align=left;verticalAlign=top;spacingLeft=4;spacingRight=4;overflow=hidden;rotatable=0;points=[[0,0.5],[1,0.5]];portConstraint=eastwest;whiteSpace=wrap;html=1;" parent="FDrHorXSiLE-RwHZ9RLK-13" vertex="1">
          <mxGeometry y="26" width="400" height="26" as="geometry" />
        </mxCell>
        <mxCell id="FDrHorXSiLE-RwHZ9RLK-15" value="- timestamp: String" style="text;strokeColor=none;fillColor=none;align=left;verticalAlign=top;spacingLeft=4;spacingRight=4;overflow=hidden;rotatable=0;points=[[0,0.5],[1,0.5]];portConstraint=eastwest;whiteSpace=wrap;html=1;" parent="FDrHorXSiLE-RwHZ9RLK-13" vertex="1">
          <mxGeometry y="52" width="400" height="26" as="geometry" />
        </mxCell>
        <mxCell id="FDrHorXSiLE-RwHZ9RLK-21" value="- location: String" style="text;strokeColor=none;fillColor=none;align=left;verticalAlign=top;spacingLeft=4;spacingRight=4;overflow=hidden;rotatable=0;points=[[0,0.5],[1,0.5]];portConstraint=eastwest;whiteSpace=wrap;html=1;" parent="FDrHorXSiLE-RwHZ9RLK-13" vertex="1">
          <mxGeometry y="78" width="400" height="26" as="geometry" />
        </mxCell>
        <mxCell id="FDrHorXSiLE-RwHZ9RLK-25" value="- pm25: String" style="text;strokeColor=none;fillColor=none;align=left;verticalAlign=top;spacingLeft=4;spacingRight=4;overflow=hidden;rotatable=0;points=[[0,0.5],[1,0.5]];portConstraint=eastwest;whiteSpace=wrap;html=1;" parent="FDrHorXSiLE-RwHZ9RLK-13" vertex="1">
          <mxGeometry y="104" width="400" height="26" as="geometry" />
        </mxCell>
        <mxCell id="FDrHorXSiLE-RwHZ9RLK-24" value="- pm10: String" style="text;strokeColor=none;fillColor=none;align=left;verticalAlign=top;spacingLeft=4;spacingRight=4;overflow=hidden;rotatable=0;points=[[0,0.5],[1,0.5]];portConstraint=eastwest;whiteSpace=wrap;html=1;" parent="FDrHorXSiLE-RwHZ9RLK-13" vertex="1">
          <mxGeometry y="130" width="400" height="26" as="geometry" />
        </mxCell>
        <mxCell id="FDrHorXSiLE-RwHZ9RLK-23" value="- co2: String" style="text;strokeColor=none;fillColor=none;align=left;verticalAlign=top;spacingLeft=4;spacingRight=4;overflow=hidden;rotatable=0;points=[[0,0.5],[1,0.5]];portConstraint=eastwest;whiteSpace=wrap;html=1;" parent="FDrHorXSiLE-RwHZ9RLK-13" vertex="1">
          <mxGeometry y="156" width="400" height="26" as="geometry" />
        </mxCell>
        <mxCell id="FDrHorXSiLE-RwHZ9RLK-22" value="- ozone: String" style="text;strokeColor=none;fillColor=none;align=left;verticalAlign=top;spacingLeft=4;spacingRight=4;overflow=hidden;rotatable=0;points=[[0,0.5],[1,0.5]];portConstraint=eastwest;whiteSpace=wrap;html=1;" parent="FDrHorXSiLE-RwHZ9RLK-13" vertex="1">
          <mxGeometry y="182" width="400" height="26" as="geometry" />
        </mxCell>
        <mxCell id="FDrHorXSiLE-RwHZ9RLK-16" value="- no2: String" style="text;strokeColor=none;fillColor=none;align=left;verticalAlign=top;spacingLeft=4;spacingRight=4;overflow=hidden;rotatable=0;points=[[0,0.5],[1,0.5]];portConstraint=eastwest;whiteSpace=wrap;html=1;" parent="FDrHorXSiLE-RwHZ9RLK-13" vertex="1">
          <mxGeometry y="208" width="400" height="26" as="geometry" />
        </mxCell>
        <mxCell id="FDrHorXSiLE-RwHZ9RLK-17" value="- temperature: String" style="text;strokeColor=none;fillColor=none;align=left;verticalAlign=top;spacingLeft=4;spacingRight=4;overflow=hidden;rotatable=0;points=[[0,0.5],[1,0.5]];portConstraint=eastwest;whiteSpace=wrap;html=1;" parent="FDrHorXSiLE-RwHZ9RLK-13" vertex="1">
          <mxGeometry y="234" width="400" height="26" as="geometry" />
        </mxCell>
        <mxCell id="FDrHorXSiLE-RwHZ9RLK-26" value="- humidity: String" style="text;strokeColor=none;fillColor=none;align=left;verticalAlign=top;spacingLeft=4;spacingRight=4;overflow=hidden;rotatable=0;points=[[0,0.5],[1,0.5]];portConstraint=eastwest;whiteSpace=wrap;html=1;" parent="FDrHorXSiLE-RwHZ9RLK-13" vertex="1">
          <mxGeometry y="260" width="400" height="26" as="geometry" />
        </mxCell>
        <mxCell id="FDrHorXSiLE-RwHZ9RLK-18" value="- wind_speed: String" style="text;strokeColor=none;fillColor=none;align=left;verticalAlign=top;spacingLeft=4;spacingRight=4;overflow=hidden;rotatable=0;points=[[0,0.5],[1,0.5]];portConstraint=eastwest;whiteSpace=wrap;html=1;" parent="FDrHorXSiLE-RwHZ9RLK-13" vertex="1">
          <mxGeometry y="286" width="400" height="26" as="geometry" />
        </mxCell>
        <mxCell id="FDrHorXSiLE-RwHZ9RLK-19" value="" style="line;strokeWidth=1;fillColor=none;align=left;verticalAlign=middle;spacingTop=-1;spacingLeft=3;spacingRight=3;rotatable=0;labelPosition=right;points=[];portConstraint=eastwest;strokeColor=inherit;" parent="FDrHorXSiLE-RwHZ9RLK-13" vertex="1">
          <mxGeometry y="312" width="400" height="8" as="geometry" />
        </mxCell>
        <mxCell id="FDrHorXSiLE-RwHZ9RLK-134" value="+ saveAirQuality(airQualityModel): ResponseEntity" style="text;strokeColor=none;fillColor=none;align=left;verticalAlign=top;spacingLeft=4;spacingRight=4;overflow=hidden;rotatable=0;points=[[0,0.5],[1,0.5]];portConstraint=eastwest;whiteSpace=wrap;html=1;" parent="FDrHorXSiLE-RwHZ9RLK-13" vertex="1">
          <mxGeometry y="320" width="400" height="26" as="geometry" />
        </mxCell>
        <mxCell id="FDrHorXSiLE-RwHZ9RLK-136" value="+ getAllAirQuality(): List&amp;lt;airQualityModel&amp;gt;" style="text;strokeColor=none;fillColor=none;align=left;verticalAlign=top;spacingLeft=4;spacingRight=4;overflow=hidden;rotatable=0;points=[[0,0.5],[1,0.5]];portConstraint=eastwest;whiteSpace=wrap;html=1;" parent="FDrHorXSiLE-RwHZ9RLK-13" vertex="1">
          <mxGeometry y="346" width="400" height="26" as="geometry" />
        </mxCell>
        <mxCell id="FDrHorXSiLE-RwHZ9RLK-138" value="+ getAirQuality(String): ResponseEntity" style="text;strokeColor=none;fillColor=none;align=left;verticalAlign=top;spacingLeft=4;spacingRight=4;overflow=hidden;rotatable=0;points=[[0,0.5],[1,0.5]];portConstraint=eastwest;whiteSpace=wrap;html=1;" parent="FDrHorXSiLE-RwHZ9RLK-13" vertex="1">
          <mxGeometry y="372" width="400" height="26" as="geometry" />
        </mxCell>
        <mxCell id="FDrHorXSiLE-RwHZ9RLK-140" value="+ deleteAirQuality(String): ResponseEntity" style="text;strokeColor=none;fillColor=none;align=left;verticalAlign=top;spacingLeft=4;spacingRight=4;overflow=hidden;rotatable=0;points=[[0,0.5],[1,0.5]];portConstraint=eastwest;whiteSpace=wrap;html=1;" parent="FDrHorXSiLE-RwHZ9RLK-13" vertex="1">
          <mxGeometry y="398" width="400" height="26" as="geometry" />
        </mxCell>
        <mxCell id="FDrHorXSiLE-RwHZ9RLK-145" value="+ updateAirQuality(airQualityModel): ResponseEntity" style="text;strokeColor=none;fillColor=none;align=left;verticalAlign=top;spacingLeft=4;spacingRight=4;overflow=hidden;rotatable=0;points=[[0,0.5],[1,0.5]];portConstraint=eastwest;whiteSpace=wrap;html=1;" parent="FDrHorXSiLE-RwHZ9RLK-13" vertex="1">
          <mxGeometry y="424" width="400" height="26" as="geometry" />
        </mxCell>
        <mxCell id="FDrHorXSiLE-RwHZ9RLK-147" value="+ importAirQuality(MultipartFile): ResponseEntity" style="text;strokeColor=none;fillColor=none;align=left;verticalAlign=top;spacingLeft=4;spacingRight=4;overflow=hidden;rotatable=0;points=[[0,0.5],[1,0.5]];portConstraint=eastwest;whiteSpace=wrap;html=1;" parent="FDrHorXSiLE-RwHZ9RLK-13" vertex="1">
          <mxGeometry y="450" width="400" height="26" as="geometry" />
        </mxCell>
        <mxCell id="FDrHorXSiLE-RwHZ9RLK-148" value="- convertMultiPartToFile(MultipartFile): File" style="text;strokeColor=none;fillColor=none;align=left;verticalAlign=top;spacingLeft=4;spacingRight=4;overflow=hidden;rotatable=0;points=[[0,0.5],[1,0.5]];portConstraint=eastwest;whiteSpace=wrap;html=1;" parent="FDrHorXSiLE-RwHZ9RLK-13" vertex="1">
          <mxGeometry y="476" width="400" height="26" as="geometry" />
        </mxCell>
        <mxCell id="FDrHorXSiLE-RwHZ9RLK-151" value="+ getAirQualityByDate(Date): List&amp;lt;airQualityModel&amp;gt;" style="text;strokeColor=none;fillColor=none;align=left;verticalAlign=top;spacingLeft=4;spacingRight=4;overflow=hidden;rotatable=0;points=[[0,0.5],[1,0.5]];portConstraint=eastwest;whiteSpace=wrap;html=1;" parent="FDrHorXSiLE-RwHZ9RLK-13" vertex="1">
          <mxGeometry y="502" width="400" height="26" as="geometry" />
        </mxCell>
        <mxCell id="FDrHorXSiLE-RwHZ9RLK-160" value="+ getAveragePm25ByDateRange(Date): Double" style="text;strokeColor=none;fillColor=none;align=left;verticalAlign=top;spacingLeft=4;spacingRight=4;overflow=hidden;rotatable=0;points=[[0,0.5],[1,0.5]];portConstraint=eastwest;whiteSpace=wrap;html=1;" parent="FDrHorXSiLE-RwHZ9RLK-13" vertex="1">
          <mxGeometry y="528" width="400" height="26" as="geometry" />
        </mxCell>
        <mxCell id="FDrHorXSiLE-RwHZ9RLK-168" value="+ getAveragePm10ByDateRange(Date): Double" style="text;strokeColor=none;fillColor=none;align=left;verticalAlign=top;spacingLeft=4;spacingRight=4;overflow=hidden;rotatable=0;points=[[0,0.5],[1,0.5]];portConstraint=eastwest;whiteSpace=wrap;html=1;" parent="FDrHorXSiLE-RwHZ9RLK-13" vertex="1">
          <mxGeometry y="554" width="400" height="26" as="geometry" />
        </mxCell>
        <mxCell id="FDrHorXSiLE-RwHZ9RLK-172" value="+ getAverageCo2ByDateRange(Date): Double" style="text;strokeColor=none;fillColor=none;align=left;verticalAlign=top;spacingLeft=4;spacingRight=4;overflow=hidden;rotatable=0;points=[[0,0.5],[1,0.5]];portConstraint=eastwest;whiteSpace=wrap;html=1;" parent="FDrHorXSiLE-RwHZ9RLK-13" vertex="1">
          <mxGeometry y="580" width="400" height="26" as="geometry" />
        </mxCell>
        <mxCell id="FDrHorXSiLE-RwHZ9RLK-174" value="+ getAverageOzoneByDateRange(Date): Double" style="text;strokeColor=none;fillColor=none;align=left;verticalAlign=top;spacingLeft=4;spacingRight=4;overflow=hidden;rotatable=0;points=[[0,0.5],[1,0.5]];portConstraint=eastwest;whiteSpace=wrap;html=1;" parent="FDrHorXSiLE-RwHZ9RLK-13" vertex="1">
          <mxGeometry y="606" width="400" height="26" as="geometry" />
        </mxCell>
        <mxCell id="FDrHorXSiLE-RwHZ9RLK-173" value="+ getAverageNo2ByDateRange(Date): Double" style="text;strokeColor=none;fillColor=none;align=left;verticalAlign=top;spacingLeft=4;spacingRight=4;overflow=hidden;rotatable=0;points=[[0,0.5],[1,0.5]];portConstraint=eastwest;whiteSpace=wrap;html=1;" parent="FDrHorXSiLE-RwHZ9RLK-13" vertex="1">
          <mxGeometry y="632" width="400" height="26" as="geometry" />
        </mxCell>
        <mxCell id="FDrHorXSiLE-RwHZ9RLK-171" value="+ getAverageTemperatureByDateRange(Date): Double" style="text;strokeColor=none;fillColor=none;align=left;verticalAlign=top;spacingLeft=4;spacingRight=4;overflow=hidden;rotatable=0;points=[[0,0.5],[1,0.5]];portConstraint=eastwest;whiteSpace=wrap;html=1;" parent="FDrHorXSiLE-RwHZ9RLK-13" vertex="1">
          <mxGeometry y="658" width="400" height="26" as="geometry" />
        </mxCell>
        <mxCell id="FDrHorXSiLE-RwHZ9RLK-170" value="+ getAverageHumidityByDateRange(Date): Double" style="text;strokeColor=none;fillColor=none;align=left;verticalAlign=top;spacingLeft=4;spacingRight=4;overflow=hidden;rotatable=0;points=[[0,0.5],[1,0.5]];portConstraint=eastwest;whiteSpace=wrap;html=1;" parent="FDrHorXSiLE-RwHZ9RLK-13" vertex="1">
          <mxGeometry y="684" width="400" height="26" as="geometry" />
        </mxCell>
        <mxCell id="FDrHorXSiLE-RwHZ9RLK-169" value="+ getAverageWindSpeedByDateRange(Date): Double" style="text;strokeColor=none;fillColor=none;align=left;verticalAlign=top;spacingLeft=4;spacingRight=4;overflow=hidden;rotatable=0;points=[[0,0.5],[1,0.5]];portConstraint=eastwest;whiteSpace=wrap;html=1;" parent="FDrHorXSiLE-RwHZ9RLK-13" vertex="1">
          <mxGeometry y="710" width="400" height="26" as="geometry" />
        </mxCell>
        <mxCell id="FDrHorXSiLE-RwHZ9RLK-175" value="+ getModeAirQualityPm25(): Double" style="text;strokeColor=none;fillColor=none;align=left;verticalAlign=top;spacingLeft=4;spacingRight=4;overflow=hidden;rotatable=0;points=[[0,0.5],[1,0.5]];portConstraint=eastwest;whiteSpace=wrap;html=1;" parent="FDrHorXSiLE-RwHZ9RLK-13" vertex="1">
          <mxGeometry y="736" width="400" height="26" as="geometry" />
        </mxCell>
        <mxCell id="FDrHorXSiLE-RwHZ9RLK-178" value="+ getModeAirQualityPm10(): Double" style="text;strokeColor=none;fillColor=none;align=left;verticalAlign=top;spacingLeft=4;spacingRight=4;overflow=hidden;rotatable=0;points=[[0,0.5],[1,0.5]];portConstraint=eastwest;whiteSpace=wrap;html=1;" parent="FDrHorXSiLE-RwHZ9RLK-13" vertex="1">
          <mxGeometry y="762" width="400" height="26" as="geometry" />
        </mxCell>
        <mxCell id="FDrHorXSiLE-RwHZ9RLK-176" value="+ getModeAirQualityCo2(): Double" style="text;strokeColor=none;fillColor=none;align=left;verticalAlign=top;spacingLeft=4;spacingRight=4;overflow=hidden;rotatable=0;points=[[0,0.5],[1,0.5]];portConstraint=eastwest;whiteSpace=wrap;html=1;" parent="FDrHorXSiLE-RwHZ9RLK-13" vertex="1">
          <mxGeometry y="788" width="400" height="26" as="geometry" />
        </mxCell>
        <mxCell id="FDrHorXSiLE-RwHZ9RLK-180" value="+ getModeAirQualityOzone(): Double" style="text;strokeColor=none;fillColor=none;align=left;verticalAlign=top;spacingLeft=4;spacingRight=4;overflow=hidden;rotatable=0;points=[[0,0.5],[1,0.5]];portConstraint=eastwest;whiteSpace=wrap;html=1;" parent="FDrHorXSiLE-RwHZ9RLK-13" vertex="1">
          <mxGeometry y="814" width="400" height="26" as="geometry" />
        </mxCell>
        <mxCell id="FDrHorXSiLE-RwHZ9RLK-182" value="+ getModeAirQualityNo2(): Double" style="text;strokeColor=none;fillColor=none;align=left;verticalAlign=top;spacingLeft=4;spacingRight=4;overflow=hidden;rotatable=0;points=[[0,0.5],[1,0.5]];portConstraint=eastwest;whiteSpace=wrap;html=1;" parent="FDrHorXSiLE-RwHZ9RLK-13" vertex="1">
          <mxGeometry y="840" width="400" height="26" as="geometry" />
        </mxCell>
        <mxCell id="FDrHorXSiLE-RwHZ9RLK-181" value="+ getModeAirQualityTemperature(): Double" style="text;strokeColor=none;fillColor=none;align=left;verticalAlign=top;spacingLeft=4;spacingRight=4;overflow=hidden;rotatable=0;points=[[0,0.5],[1,0.5]];portConstraint=eastwest;whiteSpace=wrap;html=1;" parent="FDrHorXSiLE-RwHZ9RLK-13" vertex="1">
          <mxGeometry y="866" width="400" height="26" as="geometry" />
        </mxCell>
        <mxCell id="FDrHorXSiLE-RwHZ9RLK-179" value="+ getModeAirQualityHumidity(): Double" style="text;strokeColor=none;fillColor=none;align=left;verticalAlign=top;spacingLeft=4;spacingRight=4;overflow=hidden;rotatable=0;points=[[0,0.5],[1,0.5]];portConstraint=eastwest;whiteSpace=wrap;html=1;" parent="FDrHorXSiLE-RwHZ9RLK-13" vertex="1">
          <mxGeometry y="892" width="400" height="26" as="geometry" />
        </mxCell>
        <mxCell id="FDrHorXSiLE-RwHZ9RLK-177" value="+ getModeAirQualityWindSpeed(): Double" style="text;strokeColor=none;fillColor=none;align=left;verticalAlign=top;spacingLeft=4;spacingRight=4;overflow=hidden;rotatable=0;points=[[0,0.5],[1,0.5]];portConstraint=eastwest;whiteSpace=wrap;html=1;" parent="FDrHorXSiLE-RwHZ9RLK-13" vertex="1">
          <mxGeometry y="918" width="400" height="26" as="geometry" />
        </mxCell>
        <mxCell id="FDrHorXSiLE-RwHZ9RLK-183" value="+ getCorrelation(): List&amp;lt;Double&amp;gt;" style="text;strokeColor=none;fillColor=none;align=left;verticalAlign=top;spacingLeft=4;spacingRight=4;overflow=hidden;rotatable=0;points=[[0,0.5],[1,0.5]];portConstraint=eastwest;whiteSpace=wrap;html=1;" parent="FDrHorXSiLE-RwHZ9RLK-13" vertex="1">
          <mxGeometry y="944" width="400" height="26" as="geometry" />
        </mxCell>
        <mxCell id="FDrHorXSiLE-RwHZ9RLK-185" value="+ getCorrelationPm25AndCo2(): List&amp;lt;Double&amp;gt;" style="text;strokeColor=none;fillColor=none;align=left;verticalAlign=top;spacingLeft=4;spacingRight=4;overflow=hidden;rotatable=0;points=[[0,0.5],[1,0.5]];portConstraint=eastwest;whiteSpace=wrap;html=1;" parent="FDrHorXSiLE-RwHZ9RLK-13" vertex="1">
          <mxGeometry y="970" width="400" height="26" as="geometry" />
        </mxCell>
        <mxCell id="FDrHorXSiLE-RwHZ9RLK-187" value="+ getModeAirQualityWindSpeed(): List&amp;lt;Double&amp;gt;" style="text;strokeColor=none;fillColor=none;align=left;verticalAlign=top;spacingLeft=4;spacingRight=4;overflow=hidden;rotatable=0;points=[[0,0.5],[1,0.5]];portConstraint=eastwest;whiteSpace=wrap;html=1;" parent="FDrHorXSiLE-RwHZ9RLK-13" vertex="1">
          <mxGeometry y="996" width="400" height="26" as="geometry" />
        </mxCell>
        <mxCell id="FDrHorXSiLE-RwHZ9RLK-190" value="+ getCorrelation(): List&amp;lt;Double&amp;gt;" style="text;strokeColor=none;fillColor=none;align=left;verticalAlign=top;spacingLeft=4;spacingRight=4;overflow=hidden;rotatable=0;points=[[0,0.5],[1,0.5]];portConstraint=eastwest;whiteSpace=wrap;html=1;" parent="FDrHorXSiLE-RwHZ9RLK-13" vertex="1">
          <mxGeometry y="1022" width="400" height="26" as="geometry" />
        </mxCell>
        <mxCell id="FDrHorXSiLE-RwHZ9RLK-189" value="+ getCorrelationPm25AndOzone(): List&amp;lt;Double&amp;gt;" style="text;strokeColor=none;fillColor=none;align=left;verticalAlign=top;spacingLeft=4;spacingRight=4;overflow=hidden;rotatable=0;points=[[0,0.5],[1,0.5]];portConstraint=eastwest;whiteSpace=wrap;html=1;" parent="FDrHorXSiLE-RwHZ9RLK-13" vertex="1">
          <mxGeometry y="1048" width="400" height="26" as="geometry" />
        </mxCell>
        <mxCell id="FDrHorXSiLE-RwHZ9RLK-191" value="+ getCorrelationPm25AndNo2(): List&amp;lt;Double&amp;gt;" style="text;strokeColor=none;fillColor=none;align=left;verticalAlign=top;spacingLeft=4;spacingRight=4;overflow=hidden;rotatable=0;points=[[0,0.5],[1,0.5]];portConstraint=eastwest;whiteSpace=wrap;html=1;" parent="FDrHorXSiLE-RwHZ9RLK-13" vertex="1">
          <mxGeometry y="1074" width="400" height="26" as="geometry" />
        </mxCell>
        <mxCell id="FDrHorXSiLE-RwHZ9RLK-188" value="+ getCorrelationPm25AndTemperature(): List&amp;lt;Double&amp;gt;" style="text;strokeColor=none;fillColor=none;align=left;verticalAlign=top;spacingLeft=4;spacingRight=4;overflow=hidden;rotatable=0;points=[[0,0.5],[1,0.5]];portConstraint=eastwest;whiteSpace=wrap;html=1;" parent="FDrHorXSiLE-RwHZ9RLK-13" vertex="1">
          <mxGeometry y="1100" width="400" height="26" as="geometry" />
        </mxCell>
        <mxCell id="FDrHorXSiLE-RwHZ9RLK-186" value="+ getCorrelationPm25AndHumidity(): List&amp;lt;Double&amp;gt;" style="text;strokeColor=none;fillColor=none;align=left;verticalAlign=top;spacingLeft=4;spacingRight=4;overflow=hidden;rotatable=0;points=[[0,0.5],[1,0.5]];portConstraint=eastwest;whiteSpace=wrap;html=1;" parent="FDrHorXSiLE-RwHZ9RLK-13" vertex="1">
          <mxGeometry y="1126" width="400" height="26" as="geometry" />
        </mxCell>
        <mxCell id="FDrHorXSiLE-RwHZ9RLK-184" value="+ getCorrelationPm25AndWindSpeed(): List&amp;lt;Double&amp;gt;" style="text;strokeColor=none;fillColor=none;align=left;verticalAlign=top;spacingLeft=4;spacingRight=4;overflow=hidden;rotatable=0;points=[[0,0.5],[1,0.5]];portConstraint=eastwest;whiteSpace=wrap;html=1;" parent="FDrHorXSiLE-RwHZ9RLK-13" vertex="1">
          <mxGeometry y="1152" width="400" height="26" as="geometry" />
        </mxCell>
        <mxCell id="FDrHorXSiLE-RwHZ9RLK-192" value="+ getCorrelationPm10AndCo2(): List&amp;lt;Double&amp;gt;" style="text;strokeColor=none;fillColor=none;align=left;verticalAlign=top;spacingLeft=4;spacingRight=4;overflow=hidden;rotatable=0;points=[[0,0.5],[1,0.5]];portConstraint=eastwest;whiteSpace=wrap;html=1;" parent="FDrHorXSiLE-RwHZ9RLK-13" vertex="1">
          <mxGeometry y="1178" width="400" height="26" as="geometry" />
        </mxCell>
        <mxCell id="FDrHorXSiLE-RwHZ9RLK-199" value="+ getCorrelationPm10AndOzone(): List&amp;lt;Double&amp;gt;" style="text;strokeColor=none;fillColor=none;align=left;verticalAlign=top;spacingLeft=4;spacingRight=4;overflow=hidden;rotatable=0;points=[[0,0.5],[1,0.5]];portConstraint=eastwest;whiteSpace=wrap;html=1;" parent="FDrHorXSiLE-RwHZ9RLK-13" vertex="1">
          <mxGeometry y="1204" width="400" height="26" as="geometry" />
        </mxCell>
        <mxCell id="FDrHorXSiLE-RwHZ9RLK-198" value="+ getCorrelationPm10AndNo2(): List&amp;lt;Double&amp;gt;" style="text;strokeColor=none;fillColor=none;align=left;verticalAlign=top;spacingLeft=4;spacingRight=4;overflow=hidden;rotatable=0;points=[[0,0.5],[1,0.5]];portConstraint=eastwest;whiteSpace=wrap;html=1;" parent="FDrHorXSiLE-RwHZ9RLK-13" vertex="1">
          <mxGeometry y="1230" width="400" height="26" as="geometry" />
        </mxCell>
        <mxCell id="FDrHorXSiLE-RwHZ9RLK-197" value="+ getCorrelationPm10AndTemperature(): List&amp;lt;Double&amp;gt;" style="text;strokeColor=none;fillColor=none;align=left;verticalAlign=top;spacingLeft=4;spacingRight=4;overflow=hidden;rotatable=0;points=[[0,0.5],[1,0.5]];portConstraint=eastwest;whiteSpace=wrap;html=1;" parent="FDrHorXSiLE-RwHZ9RLK-13" vertex="1">
          <mxGeometry y="1256" width="400" height="26" as="geometry" />
        </mxCell>
        <mxCell id="FDrHorXSiLE-RwHZ9RLK-196" value="+ getCorrelationPm10AndHumidity(): List&amp;lt;Double&amp;gt;" style="text;strokeColor=none;fillColor=none;align=left;verticalAlign=top;spacingLeft=4;spacingRight=4;overflow=hidden;rotatable=0;points=[[0,0.5],[1,0.5]];portConstraint=eastwest;whiteSpace=wrap;html=1;" parent="FDrHorXSiLE-RwHZ9RLK-13" vertex="1">
          <mxGeometry y="1282" width="400" height="26" as="geometry" />
        </mxCell>
        <mxCell id="FDrHorXSiLE-RwHZ9RLK-195" value="+ getCorrelationPm10AndWindSpeed(): List&amp;lt;Double&amp;gt;" style="text;strokeColor=none;fillColor=none;align=left;verticalAlign=top;spacingLeft=4;spacingRight=4;overflow=hidden;rotatable=0;points=[[0,0.5],[1,0.5]];portConstraint=eastwest;whiteSpace=wrap;html=1;" parent="FDrHorXSiLE-RwHZ9RLK-13" vertex="1">
          <mxGeometry y="1308" width="400" height="26" as="geometry" />
        </mxCell>
        <mxCell id="FDrHorXSiLE-RwHZ9RLK-194" value="+ getCorrelationCo2AndOzone(): List&amp;lt;Double&amp;gt;" style="text;strokeColor=none;fillColor=none;align=left;verticalAlign=top;spacingLeft=4;spacingRight=4;overflow=hidden;rotatable=0;points=[[0,0.5],[1,0.5]];portConstraint=eastwest;whiteSpace=wrap;html=1;" parent="FDrHorXSiLE-RwHZ9RLK-13" vertex="1">
          <mxGeometry y="1334" width="400" height="26" as="geometry" />
        </mxCell>
        <mxCell id="FDrHorXSiLE-RwHZ9RLK-193" value="+ getCorrelationCo2AndNo2(): List&amp;lt;Double&amp;gt;" style="text;strokeColor=none;fillColor=none;align=left;verticalAlign=top;spacingLeft=4;spacingRight=4;overflow=hidden;rotatable=0;points=[[0,0.5],[1,0.5]];portConstraint=eastwest;whiteSpace=wrap;html=1;" parent="FDrHorXSiLE-RwHZ9RLK-13" vertex="1">
          <mxGeometry y="1360" width="400" height="26" as="geometry" />
        </mxCell>
        <mxCell id="FDrHorXSiLE-RwHZ9RLK-200" value="+ getCorrelationCo2AndTemperature(): List&amp;lt;Double&amp;gt;" style="text;strokeColor=none;fillColor=none;align=left;verticalAlign=top;spacingLeft=4;spacingRight=4;overflow=hidden;rotatable=0;points=[[0,0.5],[1,0.5]];portConstraint=eastwest;whiteSpace=wrap;html=1;" parent="FDrHorXSiLE-RwHZ9RLK-13" vertex="1">
          <mxGeometry y="1386" width="400" height="26" as="geometry" />
        </mxCell>
        <mxCell id="FDrHorXSiLE-RwHZ9RLK-213" value="+ getCorrelationCo2AndNo2(): List&amp;lt;Double&amp;gt;" style="text;strokeColor=none;fillColor=none;align=left;verticalAlign=top;spacingLeft=4;spacingRight=4;overflow=hidden;rotatable=0;points=[[0,0.5],[1,0.5]];portConstraint=eastwest;whiteSpace=wrap;html=1;" parent="FDrHorXSiLE-RwHZ9RLK-13" vertex="1">
          <mxGeometry y="1412" width="400" height="26" as="geometry" />
        </mxCell>
        <mxCell id="FDrHorXSiLE-RwHZ9RLK-212" value="+ getCorrelationCo2AndOzone(): List&amp;lt;Double&amp;gt;" style="text;strokeColor=none;fillColor=none;align=left;verticalAlign=top;spacingLeft=4;spacingRight=4;overflow=hidden;rotatable=0;points=[[0,0.5],[1,0.5]];portConstraint=eastwest;whiteSpace=wrap;html=1;" parent="FDrHorXSiLE-RwHZ9RLK-13" vertex="1">
          <mxGeometry y="1438" width="400" height="26" as="geometry" />
        </mxCell>
        <mxCell id="FDrHorXSiLE-RwHZ9RLK-211" value="+ getCorrelationCo2AndHumidity(): List&amp;lt;Double&amp;gt;" style="text;strokeColor=none;fillColor=none;align=left;verticalAlign=top;spacingLeft=4;spacingRight=4;overflow=hidden;rotatable=0;points=[[0,0.5],[1,0.5]];portConstraint=eastwest;whiteSpace=wrap;html=1;" parent="FDrHorXSiLE-RwHZ9RLK-13" vertex="1">
          <mxGeometry y="1464" width="400" height="26" as="geometry" />
        </mxCell>
        <mxCell id="FDrHorXSiLE-RwHZ9RLK-210" value="+ getCorrelationCo2AndWindSpeed(): List&amp;lt;Double&amp;gt;" style="text;strokeColor=none;fillColor=none;align=left;verticalAlign=top;spacingLeft=4;spacingRight=4;overflow=hidden;rotatable=0;points=[[0,0.5],[1,0.5]];portConstraint=eastwest;whiteSpace=wrap;html=1;" parent="FDrHorXSiLE-RwHZ9RLK-13" vertex="1">
          <mxGeometry y="1490" width="400" height="26" as="geometry" />
        </mxCell>
        <mxCell id="FDrHorXSiLE-RwHZ9RLK-209" value="+ getCorrelationOzoneAndNo2(): List&amp;lt;Double&amp;gt;" style="text;strokeColor=none;fillColor=none;align=left;verticalAlign=top;spacingLeft=4;spacingRight=4;overflow=hidden;rotatable=0;points=[[0,0.5],[1,0.5]];portConstraint=eastwest;whiteSpace=wrap;html=1;" parent="FDrHorXSiLE-RwHZ9RLK-13" vertex="1">
          <mxGeometry y="1516" width="400" height="26" as="geometry" />
        </mxCell>
        <mxCell id="FDrHorXSiLE-RwHZ9RLK-208" value="+ getCorrelationOzoneAndTemperature(): List&amp;lt;Double&amp;gt;" style="text;strokeColor=none;fillColor=none;align=left;verticalAlign=top;spacingLeft=4;spacingRight=4;overflow=hidden;rotatable=0;points=[[0,0.5],[1,0.5]];portConstraint=eastwest;whiteSpace=wrap;html=1;" parent="FDrHorXSiLE-RwHZ9RLK-13" vertex="1">
          <mxGeometry y="1542" width="400" height="26" as="geometry" />
        </mxCell>
        <mxCell id="FDrHorXSiLE-RwHZ9RLK-207" value="+ getCorrelationOzoneAndHumidity(): List&amp;lt;Double&amp;gt;" style="text;strokeColor=none;fillColor=none;align=left;verticalAlign=top;spacingLeft=4;spacingRight=4;overflow=hidden;rotatable=0;points=[[0,0.5],[1,0.5]];portConstraint=eastwest;whiteSpace=wrap;html=1;" parent="FDrHorXSiLE-RwHZ9RLK-13" vertex="1">
          <mxGeometry y="1568" width="400" height="26" as="geometry" />
        </mxCell>
        <mxCell id="FDrHorXSiLE-RwHZ9RLK-206" value="+ getCorrelationOzoneAndWindSpeed(): List&amp;lt;Double&amp;gt;" style="text;strokeColor=none;fillColor=none;align=left;verticalAlign=top;spacingLeft=4;spacingRight=4;overflow=hidden;rotatable=0;points=[[0,0.5],[1,0.5]];portConstraint=eastwest;whiteSpace=wrap;html=1;" parent="FDrHorXSiLE-RwHZ9RLK-13" vertex="1">
          <mxGeometry y="1594" width="400" height="26" as="geometry" />
        </mxCell>
        <mxCell id="FDrHorXSiLE-RwHZ9RLK-205" value="+ getCorrelationNo2AndTemperature(): List&amp;lt;Double&amp;gt;" style="text;strokeColor=none;fillColor=none;align=left;verticalAlign=top;spacingLeft=4;spacingRight=4;overflow=hidden;rotatable=0;points=[[0,0.5],[1,0.5]];portConstraint=eastwest;whiteSpace=wrap;html=1;" parent="FDrHorXSiLE-RwHZ9RLK-13" vertex="1">
          <mxGeometry y="1620" width="400" height="26" as="geometry" />
        </mxCell>
        <mxCell id="FDrHorXSiLE-RwHZ9RLK-204" value="+ getCorrelationNo2AndHumidity(): List&amp;lt;Double&amp;gt;" style="text;strokeColor=none;fillColor=none;align=left;verticalAlign=top;spacingLeft=4;spacingRight=4;overflow=hidden;rotatable=0;points=[[0,0.5],[1,0.5]];portConstraint=eastwest;whiteSpace=wrap;html=1;" parent="FDrHorXSiLE-RwHZ9RLK-13" vertex="1">
          <mxGeometry y="1646" width="400" height="26" as="geometry" />
        </mxCell>
        <mxCell id="FDrHorXSiLE-RwHZ9RLK-203" value="+ getCorrelationNo2AndWindSpeed(): List&amp;lt;Double&amp;gt;" style="text;strokeColor=none;fillColor=none;align=left;verticalAlign=top;spacingLeft=4;spacingRight=4;overflow=hidden;rotatable=0;points=[[0,0.5],[1,0.5]];portConstraint=eastwest;whiteSpace=wrap;html=1;" parent="FDrHorXSiLE-RwHZ9RLK-13" vertex="1">
          <mxGeometry y="1672" width="400" height="26" as="geometry" />
        </mxCell>
        <mxCell id="FDrHorXSiLE-RwHZ9RLK-202" value="+ getCorrelationTemperatureAndHumidity(): List&amp;lt;Double&amp;gt;" style="text;strokeColor=none;fillColor=none;align=left;verticalAlign=top;spacingLeft=4;spacingRight=4;overflow=hidden;rotatable=0;points=[[0,0.5],[1,0.5]];portConstraint=eastwest;whiteSpace=wrap;html=1;" parent="FDrHorXSiLE-RwHZ9RLK-13" vertex="1">
          <mxGeometry y="1698" width="400" height="26" as="geometry" />
        </mxCell>
        <mxCell id="FDrHorXSiLE-RwHZ9RLK-201" value="+ getCorrelationTemperatureAndWindSpeed(): List&amp;lt;Double&amp;gt;" style="text;strokeColor=none;fillColor=none;align=left;verticalAlign=top;spacingLeft=4;spacingRight=4;overflow=hidden;rotatable=0;points=[[0,0.5],[1,0.5]];portConstraint=eastwest;whiteSpace=wrap;html=1;" parent="FDrHorXSiLE-RwHZ9RLK-13" vertex="1">
          <mxGeometry y="1724" width="400" height="26" as="geometry" />
        </mxCell>
        <mxCell id="FDrHorXSiLE-RwHZ9RLK-214" value="+ getCorrelationHumidityAndWindSpeed(): List&amp;lt;Double&amp;gt;" style="text;strokeColor=none;fillColor=none;align=left;verticalAlign=top;spacingLeft=4;spacingRight=4;overflow=hidden;rotatable=0;points=[[0,0.5],[1,0.5]];portConstraint=eastwest;whiteSpace=wrap;html=1;" parent="FDrHorXSiLE-RwHZ9RLK-13" vertex="1">
          <mxGeometry y="1750" width="400" height="26" as="geometry" />
        </mxCell>
        <mxCell id="FDrHorXSiLE-RwHZ9RLK-247" value="+ getCorrelationReverse(): List&amp;lt;Double&amp;gt;" style="text;strokeColor=none;fillColor=none;align=left;verticalAlign=top;spacingLeft=4;spacingRight=4;overflow=hidden;rotatable=0;points=[[0,0.5],[1,0.5]];portConstraint=eastwest;whiteSpace=wrap;html=1;" parent="FDrHorXSiLE-RwHZ9RLK-13" vertex="1">
          <mxGeometry y="1776" width="400" height="26" as="geometry" />
        </mxCell>
        <mxCell id="FDrHorXSiLE-RwHZ9RLK-275" value="+ getCorrelationHumidityAndWindSpeedReverse(): List&amp;lt;Double&amp;gt;" style="text;strokeColor=none;fillColor=none;align=left;verticalAlign=top;spacingLeft=4;spacingRight=4;overflow=hidden;rotatable=0;points=[[0,0.5],[1,0.5]];portConstraint=eastwest;whiteSpace=wrap;html=1;" parent="FDrHorXSiLE-RwHZ9RLK-13" vertex="1">
          <mxGeometry y="1802" width="400" height="26" as="geometry" />
        </mxCell>
        <mxCell id="FDrHorXSiLE-RwHZ9RLK-274" value="+ getCorrelationTemperatureAndWindSpeedReverse(): List&amp;lt;Double&amp;gt;" style="text;strokeColor=none;fillColor=none;align=left;verticalAlign=top;spacingLeft=4;spacingRight=4;overflow=hidden;rotatable=0;points=[[0,0.5],[1,0.5]];portConstraint=eastwest;whiteSpace=wrap;html=1;" parent="FDrHorXSiLE-RwHZ9RLK-13" vertex="1">
          <mxGeometry y="1828" width="400" height="26" as="geometry" />
        </mxCell>
        <mxCell id="FDrHorXSiLE-RwHZ9RLK-273" value="+ getCorrelationTemperatureAndHumidityReverse(): List&amp;lt;Double&amp;gt;" style="text;strokeColor=none;fillColor=none;align=left;verticalAlign=top;spacingLeft=4;spacingRight=4;overflow=hidden;rotatable=0;points=[[0,0.5],[1,0.5]];portConstraint=eastwest;whiteSpace=wrap;html=1;" parent="FDrHorXSiLE-RwHZ9RLK-13" vertex="1">
          <mxGeometry y="1854" width="400" height="26" as="geometry" />
        </mxCell>
        <mxCell id="FDrHorXSiLE-RwHZ9RLK-272" value="+ getCorrelationNo2AndWindSpeedReverse(): List&amp;lt;Double&amp;gt;" style="text;strokeColor=none;fillColor=none;align=left;verticalAlign=top;spacingLeft=4;spacingRight=4;overflow=hidden;rotatable=0;points=[[0,0.5],[1,0.5]];portConstraint=eastwest;whiteSpace=wrap;html=1;" parent="FDrHorXSiLE-RwHZ9RLK-13" vertex="1">
          <mxGeometry y="1880" width="400" height="26" as="geometry" />
        </mxCell>
        <mxCell id="FDrHorXSiLE-RwHZ9RLK-271" value="+ getCorrelationNo2AndHumidityReverse(): List&amp;lt;Double&amp;gt;" style="text;strokeColor=none;fillColor=none;align=left;verticalAlign=top;spacingLeft=4;spacingRight=4;overflow=hidden;rotatable=0;points=[[0,0.5],[1,0.5]];portConstraint=eastwest;whiteSpace=wrap;html=1;" parent="FDrHorXSiLE-RwHZ9RLK-13" vertex="1">
          <mxGeometry y="1906" width="400" height="26" as="geometry" />
        </mxCell>
        <mxCell id="FDrHorXSiLE-RwHZ9RLK-270" value="+ getCorrelationNo2AndTemperatureReverse(): List&amp;lt;Double&amp;gt;" style="text;strokeColor=none;fillColor=none;align=left;verticalAlign=top;spacingLeft=4;spacingRight=4;overflow=hidden;rotatable=0;points=[[0,0.5],[1,0.5]];portConstraint=eastwest;whiteSpace=wrap;html=1;" parent="FDrHorXSiLE-RwHZ9RLK-13" vertex="1">
          <mxGeometry y="1932" width="400" height="26" as="geometry" />
        </mxCell>
        <mxCell id="FDrHorXSiLE-RwHZ9RLK-269" value="+ getCorrelationOzoneAndWindSpeedReverse(): List&amp;lt;Double&amp;gt;" style="text;strokeColor=none;fillColor=none;align=left;verticalAlign=top;spacingLeft=4;spacingRight=4;overflow=hidden;rotatable=0;points=[[0,0.5],[1,0.5]];portConstraint=eastwest;whiteSpace=wrap;html=1;" parent="FDrHorXSiLE-RwHZ9RLK-13" vertex="1">
          <mxGeometry y="1958" width="400" height="26" as="geometry" />
        </mxCell>
        <mxCell id="FDrHorXSiLE-RwHZ9RLK-268" value="+ getCorrelationOzoneAndHumidityReverse(): List&amp;lt;Double&amp;gt;" style="text;strokeColor=none;fillColor=none;align=left;verticalAlign=top;spacingLeft=4;spacingRight=4;overflow=hidden;rotatable=0;points=[[0,0.5],[1,0.5]];portConstraint=eastwest;whiteSpace=wrap;html=1;" parent="FDrHorXSiLE-RwHZ9RLK-13" vertex="1">
          <mxGeometry y="1984" width="400" height="26" as="geometry" />
        </mxCell>
        <mxCell id="FDrHorXSiLE-RwHZ9RLK-267" value="+ getCorrelationOzoneAndTemperatureReverse(): List&amp;lt;Double&amp;gt;" style="text;strokeColor=none;fillColor=none;align=left;verticalAlign=top;spacingLeft=4;spacingRight=4;overflow=hidden;rotatable=0;points=[[0,0.5],[1,0.5]];portConstraint=eastwest;whiteSpace=wrap;html=1;" parent="FDrHorXSiLE-RwHZ9RLK-13" vertex="1">
          <mxGeometry y="2010" width="400" height="26" as="geometry" />
        </mxCell>
        <mxCell id="FDrHorXSiLE-RwHZ9RLK-266" value="+ getCorrelationOzoneAndNo2Reverse(): List&amp;lt;Double&amp;gt;" style="text;strokeColor=none;fillColor=none;align=left;verticalAlign=top;spacingLeft=4;spacingRight=4;overflow=hidden;rotatable=0;points=[[0,0.5],[1,0.5]];portConstraint=eastwest;whiteSpace=wrap;html=1;" parent="FDrHorXSiLE-RwHZ9RLK-13" vertex="1">
          <mxGeometry y="2036" width="400" height="26" as="geometry" />
        </mxCell>
        <mxCell id="FDrHorXSiLE-RwHZ9RLK-265" value="+ getCorrelationCo2AndWindSpeedReverse(): List&amp;lt;Double&amp;gt;" style="text;strokeColor=none;fillColor=none;align=left;verticalAlign=top;spacingLeft=4;spacingRight=4;overflow=hidden;rotatable=0;points=[[0,0.5],[1,0.5]];portConstraint=eastwest;whiteSpace=wrap;html=1;" parent="FDrHorXSiLE-RwHZ9RLK-13" vertex="1">
          <mxGeometry y="2062" width="400" height="26" as="geometry" />
        </mxCell>
        <mxCell id="FDrHorXSiLE-RwHZ9RLK-264" value="+ getCorrelationCo2AndHumidityReverse(): List&amp;lt;Double&amp;gt;" style="text;strokeColor=none;fillColor=none;align=left;verticalAlign=top;spacingLeft=4;spacingRight=4;overflow=hidden;rotatable=0;points=[[0,0.5],[1,0.5]];portConstraint=eastwest;whiteSpace=wrap;html=1;" parent="FDrHorXSiLE-RwHZ9RLK-13" vertex="1">
          <mxGeometry y="2088" width="400" height="26" as="geometry" />
        </mxCell>
        <mxCell id="FDrHorXSiLE-RwHZ9RLK-263" value="+ getCorrelationCo2AndOzoneReverse(): List&amp;lt;Double&amp;gt;" style="text;strokeColor=none;fillColor=none;align=left;verticalAlign=top;spacingLeft=4;spacingRight=4;overflow=hidden;rotatable=0;points=[[0,0.5],[1,0.5]];portConstraint=eastwest;whiteSpace=wrap;html=1;" parent="FDrHorXSiLE-RwHZ9RLK-13" vertex="1">
          <mxGeometry y="2114" width="400" height="26" as="geometry" />
        </mxCell>
        <mxCell id="FDrHorXSiLE-RwHZ9RLK-262" value="+ getCorrelationCo2AndNo2Reverse(): List&amp;lt;Double&amp;gt;" style="text;strokeColor=none;fillColor=none;align=left;verticalAlign=top;spacingLeft=4;spacingRight=4;overflow=hidden;rotatable=0;points=[[0,0.5],[1,0.5]];portConstraint=eastwest;whiteSpace=wrap;html=1;" parent="FDrHorXSiLE-RwHZ9RLK-13" vertex="1">
          <mxGeometry y="2140" width="400" height="26" as="geometry" />
        </mxCell>
        <mxCell id="FDrHorXSiLE-RwHZ9RLK-261" value="+ getCorrelationCo2AndTemperatureReverse(): List&amp;lt;Double&amp;gt;" style="text;strokeColor=none;fillColor=none;align=left;verticalAlign=top;spacingLeft=4;spacingRight=4;overflow=hidden;rotatable=0;points=[[0,0.5],[1,0.5]];portConstraint=eastwest;whiteSpace=wrap;html=1;" parent="FDrHorXSiLE-RwHZ9RLK-13" vertex="1">
          <mxGeometry y="2166" width="400" height="26" as="geometry" />
        </mxCell>
        <mxCell id="FDrHorXSiLE-RwHZ9RLK-260" value="+ getCorrelationCo2AndNo2Reverse(): List&amp;lt;Double&amp;gt;" style="text;strokeColor=none;fillColor=none;align=left;verticalAlign=top;spacingLeft=4;spacingRight=4;overflow=hidden;rotatable=0;points=[[0,0.5],[1,0.5]];portConstraint=eastwest;whiteSpace=wrap;html=1;" parent="FDrHorXSiLE-RwHZ9RLK-13" vertex="1">
          <mxGeometry y="2192" width="400" height="26" as="geometry" />
        </mxCell>
        <mxCell id="FDrHorXSiLE-RwHZ9RLK-259" value="+ getCorrelationCo2AndOzoneReverse(): List&amp;lt;Double&amp;gt;" style="text;strokeColor=none;fillColor=none;align=left;verticalAlign=top;spacingLeft=4;spacingRight=4;overflow=hidden;rotatable=0;points=[[0,0.5],[1,0.5]];portConstraint=eastwest;whiteSpace=wrap;html=1;" parent="FDrHorXSiLE-RwHZ9RLK-13" vertex="1">
          <mxGeometry y="2218" width="400" height="26" as="geometry" />
        </mxCell>
        <mxCell id="FDrHorXSiLE-RwHZ9RLK-258" value="+ getCorrelationPm10AndWindSpeedReverse(): List&amp;lt;Double&amp;gt;" style="text;strokeColor=none;fillColor=none;align=left;verticalAlign=top;spacingLeft=4;spacingRight=4;overflow=hidden;rotatable=0;points=[[0,0.5],[1,0.5]];portConstraint=eastwest;whiteSpace=wrap;html=1;" parent="FDrHorXSiLE-RwHZ9RLK-13" vertex="1">
          <mxGeometry y="2244" width="400" height="26" as="geometry" />
        </mxCell>
        <mxCell id="FDrHorXSiLE-RwHZ9RLK-257" value="+ getCorrelationPm10AndHumidityReverse(): List&amp;lt;Double&amp;gt;" style="text;strokeColor=none;fillColor=none;align=left;verticalAlign=top;spacingLeft=4;spacingRight=4;overflow=hidden;rotatable=0;points=[[0,0.5],[1,0.5]];portConstraint=eastwest;whiteSpace=wrap;html=1;" parent="FDrHorXSiLE-RwHZ9RLK-13" vertex="1">
          <mxGeometry y="2270" width="400" height="26" as="geometry" />
        </mxCell>
        <mxCell id="FDrHorXSiLE-RwHZ9RLK-256" value="+ getCorrelationPm10AndTemperatureReverse(): List&amp;lt;Double&amp;gt;" style="text;strokeColor=none;fillColor=none;align=left;verticalAlign=top;spacingLeft=4;spacingRight=4;overflow=hidden;rotatable=0;points=[[0,0.5],[1,0.5]];portConstraint=eastwest;whiteSpace=wrap;html=1;" parent="FDrHorXSiLE-RwHZ9RLK-13" vertex="1">
          <mxGeometry y="2296" width="400" height="26" as="geometry" />
        </mxCell>
        <mxCell id="FDrHorXSiLE-RwHZ9RLK-255" value="+ getCorrelationPm10AndNo2Reverse(): List&amp;lt;Double&amp;gt;" style="text;strokeColor=none;fillColor=none;align=left;verticalAlign=top;spacingLeft=4;spacingRight=4;overflow=hidden;rotatable=0;points=[[0,0.5],[1,0.5]];portConstraint=eastwest;whiteSpace=wrap;html=1;" parent="FDrHorXSiLE-RwHZ9RLK-13" vertex="1">
          <mxGeometry y="2322" width="400" height="26" as="geometry" />
        </mxCell>
        <mxCell id="FDrHorXSiLE-RwHZ9RLK-254" value="+ getCorrelationPm10AndOzoneReverse(): List&amp;lt;Double&amp;gt;" style="text;strokeColor=none;fillColor=none;align=left;verticalAlign=top;spacingLeft=4;spacingRight=4;overflow=hidden;rotatable=0;points=[[0,0.5],[1,0.5]];portConstraint=eastwest;whiteSpace=wrap;html=1;" parent="FDrHorXSiLE-RwHZ9RLK-13" vertex="1">
          <mxGeometry y="2348" width="400" height="26" as="geometry" />
        </mxCell>
        <mxCell id="FDrHorXSiLE-RwHZ9RLK-253" value="+ getCorrelationPm10AndCo2Reverse(): List&amp;lt;Double&amp;gt;" style="text;strokeColor=none;fillColor=none;align=left;verticalAlign=top;spacingLeft=4;spacingRight=4;overflow=hidden;rotatable=0;points=[[0,0.5],[1,0.5]];portConstraint=eastwest;whiteSpace=wrap;html=1;" parent="FDrHorXSiLE-RwHZ9RLK-13" vertex="1">
          <mxGeometry y="2374" width="400" height="26" as="geometry" />
        </mxCell>
        <mxCell id="FDrHorXSiLE-RwHZ9RLK-252" value="+ getCorrelationPm25AndWindSpeedReverse(): List&amp;lt;Double&amp;gt;" style="text;strokeColor=none;fillColor=none;align=left;verticalAlign=top;spacingLeft=4;spacingRight=4;overflow=hidden;rotatable=0;points=[[0,0.5],[1,0.5]];portConstraint=eastwest;whiteSpace=wrap;html=1;" parent="FDrHorXSiLE-RwHZ9RLK-13" vertex="1">
          <mxGeometry y="2400" width="400" height="26" as="geometry" />
        </mxCell>
        <mxCell id="FDrHorXSiLE-RwHZ9RLK-251" value="+ getCorrelationPm25AndHumidityReverse(): List&amp;lt;Double&amp;gt;" style="text;strokeColor=none;fillColor=none;align=left;verticalAlign=top;spacingLeft=4;spacingRight=4;overflow=hidden;rotatable=0;points=[[0,0.5],[1,0.5]];portConstraint=eastwest;whiteSpace=wrap;html=1;" parent="FDrHorXSiLE-RwHZ9RLK-13" vertex="1">
          <mxGeometry y="2426" width="400" height="26" as="geometry" />
        </mxCell>
        <mxCell id="FDrHorXSiLE-RwHZ9RLK-250" value="+ getCorrelationPm25AndTemperatureReverse(): List&amp;lt;Double&amp;gt;" style="text;strokeColor=none;fillColor=none;align=left;verticalAlign=top;spacingLeft=4;spacingRight=4;overflow=hidden;rotatable=0;points=[[0,0.5],[1,0.5]];portConstraint=eastwest;whiteSpace=wrap;html=1;" parent="FDrHorXSiLE-RwHZ9RLK-13" vertex="1">
          <mxGeometry y="2452" width="400" height="26" as="geometry" />
        </mxCell>
        <mxCell id="FDrHorXSiLE-RwHZ9RLK-249" value="+ getCorrelationPm25AndNo2Reverse(): List&amp;lt;Double&amp;gt;" style="text;strokeColor=none;fillColor=none;align=left;verticalAlign=top;spacingLeft=4;spacingRight=4;overflow=hidden;rotatable=0;points=[[0,0.5],[1,0.5]];portConstraint=eastwest;whiteSpace=wrap;html=1;" parent="FDrHorXSiLE-RwHZ9RLK-13" vertex="1">
          <mxGeometry y="2478" width="400" height="26" as="geometry" />
        </mxCell>
        <mxCell id="FDrHorXSiLE-RwHZ9RLK-248" value="+ getCorrelationPm25AndOzoneReverse(): List&amp;lt;Double&amp;gt;" style="text;strokeColor=none;fillColor=none;align=left;verticalAlign=top;spacingLeft=4;spacingRight=4;overflow=hidden;rotatable=0;points=[[0,0.5],[1,0.5]];portConstraint=eastwest;whiteSpace=wrap;html=1;" parent="FDrHorXSiLE-RwHZ9RLK-13" vertex="1">
          <mxGeometry y="2504" width="400" height="26" as="geometry" />
        </mxCell>
        <mxCell id="FDrHorXSiLE-RwHZ9RLK-27" value="Blog" style="swimlane;fontStyle=1;align=center;verticalAlign=top;childLayout=stackLayout;horizontal=1;startSize=26;horizontalStack=0;resizeParent=1;resizeParentMax=0;resizeLast=0;collapsible=1;marginBottom=0;whiteSpace=wrap;html=1;" parent="1" vertex="1">
          <mxGeometry x="2000" y="880" width="239" height="372" as="geometry" />
        </mxCell>
        <mxCell id="FDrHorXSiLE-RwHZ9RLK-28" value="- id: String" style="text;strokeColor=none;fillColor=none;align=left;verticalAlign=top;spacingLeft=4;spacingRight=4;overflow=hidden;rotatable=0;points=[[0,0.5],[1,0.5]];portConstraint=eastwest;whiteSpace=wrap;html=1;" parent="FDrHorXSiLE-RwHZ9RLK-27" vertex="1">
          <mxGeometry y="26" width="239" height="26" as="geometry" />
        </mxCell>
        <mxCell id="FDrHorXSiLE-RwHZ9RLK-29" value="- title: String" style="text;strokeColor=none;fillColor=none;align=left;verticalAlign=top;spacingLeft=4;spacingRight=4;overflow=hidden;rotatable=0;points=[[0,0.5],[1,0.5]];portConstraint=eastwest;whiteSpace=wrap;html=1;" parent="FDrHorXSiLE-RwHZ9RLK-27" vertex="1">
          <mxGeometry y="52" width="239" height="26" as="geometry" />
        </mxCell>
        <mxCell id="FDrHorXSiLE-RwHZ9RLK-30" value="- description: String" style="text;strokeColor=none;fillColor=none;align=left;verticalAlign=top;spacingLeft=4;spacingRight=4;overflow=hidden;rotatable=0;points=[[0,0.5],[1,0.5]];portConstraint=eastwest;whiteSpace=wrap;html=1;" parent="FDrHorXSiLE-RwHZ9RLK-27" vertex="1">
          <mxGeometry y="78" width="239" height="26" as="geometry" />
        </mxCell>
        <mxCell id="FDrHorXSiLE-RwHZ9RLK-31" value="- content: String" style="text;strokeColor=none;fillColor=none;align=left;verticalAlign=top;spacingLeft=4;spacingRight=4;overflow=hidden;rotatable=0;points=[[0,0.5],[1,0.5]];portConstraint=eastwest;whiteSpace=wrap;html=1;" parent="FDrHorXSiLE-RwHZ9RLK-27" vertex="1">
          <mxGeometry y="104" width="239" height="26" as="geometry" />
        </mxCell>
        <mxCell id="FDrHorXSiLE-RwHZ9RLK-35" value="- image: String" style="text;strokeColor=none;fillColor=none;align=left;verticalAlign=top;spacingLeft=4;spacingRight=4;overflow=hidden;rotatable=0;points=[[0,0.5],[1,0.5]];portConstraint=eastwest;whiteSpace=wrap;html=1;" parent="FDrHorXSiLE-RwHZ9RLK-27" vertex="1">
          <mxGeometry y="130" width="239" height="26" as="geometry" />
        </mxCell>
        <mxCell id="FDrHorXSiLE-RwHZ9RLK-36" value="- tags: String" style="text;strokeColor=none;fillColor=none;align=left;verticalAlign=top;spacingLeft=4;spacingRight=4;overflow=hidden;rotatable=0;points=[[0,0.5],[1,0.5]];portConstraint=eastwest;whiteSpace=wrap;html=1;" parent="FDrHorXSiLE-RwHZ9RLK-27" vertex="1">
          <mxGeometry y="156" width="239" height="26" as="geometry" />
        </mxCell>
        <mxCell id="FDrHorXSiLE-RwHZ9RLK-37" value="- created_at: String" style="text;strokeColor=none;fillColor=none;align=left;verticalAlign=top;spacingLeft=4;spacingRight=4;overflow=hidden;rotatable=0;points=[[0,0.5],[1,0.5]];portConstraint=eastwest;whiteSpace=wrap;html=1;" parent="FDrHorXSiLE-RwHZ9RLK-27" vertex="1">
          <mxGeometry y="182" width="239" height="26" as="geometry" />
        </mxCell>
        <mxCell id="FDrHorXSiLE-RwHZ9RLK-38" value="- updated_at: String" style="text;strokeColor=none;fillColor=none;align=left;verticalAlign=top;spacingLeft=4;spacingRight=4;overflow=hidden;rotatable=0;points=[[0,0.5],[1,0.5]];portConstraint=eastwest;whiteSpace=wrap;html=1;" parent="FDrHorXSiLE-RwHZ9RLK-27" vertex="1">
          <mxGeometry y="208" width="239" height="26" as="geometry" />
        </mxCell>
        <mxCell id="FDrHorXSiLE-RwHZ9RLK-32" value="- author: String" style="text;strokeColor=none;fillColor=none;align=left;verticalAlign=top;spacingLeft=4;spacingRight=4;overflow=hidden;rotatable=0;points=[[0,0.5],[1,0.5]];portConstraint=eastwest;whiteSpace=wrap;html=1;" parent="FDrHorXSiLE-RwHZ9RLK-27" vertex="1">
          <mxGeometry y="234" width="239" height="26" as="geometry" />
        </mxCell>
        <mxCell id="FDrHorXSiLE-RwHZ9RLK-33" value="" style="line;strokeWidth=1;fillColor=none;align=left;verticalAlign=middle;spacingTop=-1;spacingLeft=3;spacingRight=3;rotatable=0;labelPosition=right;points=[];portConstraint=eastwest;strokeColor=inherit;" parent="FDrHorXSiLE-RwHZ9RLK-27" vertex="1">
          <mxGeometry y="260" width="239" height="8" as="geometry" />
        </mxCell>
        <mxCell id="FDrHorXSiLE-RwHZ9RLK-34" value="+ saveBlog(blogModel): ResponseEntity" style="text;strokeColor=none;fillColor=none;align=left;verticalAlign=top;spacingLeft=4;spacingRight=4;overflow=hidden;rotatable=0;points=[[0,0.5],[1,0.5]];portConstraint=eastwest;whiteSpace=wrap;html=1;" parent="FDrHorXSiLE-RwHZ9RLK-27" vertex="1">
          <mxGeometry y="268" width="239" height="26" as="geometry" />
        </mxCell>
        <mxCell id="L4PsidqdgJCxc6JKoqgF-184" value="+ getAllBlog(): List&amp;lt;blogModel&amp;gt;" style="text;strokeColor=none;fillColor=none;align=left;verticalAlign=top;spacingLeft=4;spacingRight=4;overflow=hidden;rotatable=0;points=[[0,0.5],[1,0.5]];portConstraint=eastwest;whiteSpace=wrap;html=1;" vertex="1" parent="FDrHorXSiLE-RwHZ9RLK-27">
          <mxGeometry y="294" width="239" height="26" as="geometry" />
        </mxCell>
        <mxCell id="L4PsidqdgJCxc6JKoqgF-183" value="+ deleteBlog(String): ResponseEntity" style="text;strokeColor=none;fillColor=none;align=left;verticalAlign=top;spacingLeft=4;spacingRight=4;overflow=hidden;rotatable=0;points=[[0,0.5],[1,0.5]];portConstraint=eastwest;whiteSpace=wrap;html=1;" vertex="1" parent="FDrHorXSiLE-RwHZ9RLK-27">
          <mxGeometry y="320" width="239" height="26" as="geometry" />
        </mxCell>
        <mxCell id="L4PsidqdgJCxc6JKoqgF-185" value="+ updateBlog(blogModel): ResponseEntity" style="text;strokeColor=none;fillColor=none;align=left;verticalAlign=top;spacingLeft=4;spacingRight=4;overflow=hidden;rotatable=0;points=[[0,0.5],[1,0.5]];portConstraint=eastwest;whiteSpace=wrap;html=1;" vertex="1" parent="FDrHorXSiLE-RwHZ9RLK-27">
          <mxGeometry y="346" width="239" height="26" as="geometry" />
        </mxCell>
        <mxCell id="FDrHorXSiLE-RwHZ9RLK-39" value="Comment" style="swimlane;fontStyle=1;align=center;verticalAlign=top;childLayout=stackLayout;horizontal=1;startSize=26;horizontalStack=0;resizeParent=1;resizeParentMax=0;resizeLast=0;collapsible=1;marginBottom=0;whiteSpace=wrap;html=1;" parent="1" vertex="1">
          <mxGeometry x="2420" y="1320" width="300" height="346" as="geometry" />
        </mxCell>
        <mxCell id="FDrHorXSiLE-RwHZ9RLK-40" value="- id: String" style="text;strokeColor=none;fillColor=none;align=left;verticalAlign=top;spacingLeft=4;spacingRight=4;overflow=hidden;rotatable=0;points=[[0,0.5],[1,0.5]];portConstraint=eastwest;whiteSpace=wrap;html=1;" parent="FDrHorXSiLE-RwHZ9RLK-39" vertex="1">
          <mxGeometry y="26" width="300" height="26" as="geometry" />
        </mxCell>
        <mxCell id="FDrHorXSiLE-RwHZ9RLK-41" value="- blogId: String" style="text;strokeColor=none;fillColor=none;align=left;verticalAlign=top;spacingLeft=4;spacingRight=4;overflow=hidden;rotatable=0;points=[[0,0.5],[1,0.5]];portConstraint=eastwest;whiteSpace=wrap;html=1;" parent="FDrHorXSiLE-RwHZ9RLK-39" vertex="1">
          <mxGeometry y="52" width="300" height="26" as="geometry" />
        </mxCell>
        <mxCell id="FDrHorXSiLE-RwHZ9RLK-42" value="- name: String" style="text;strokeColor=none;fillColor=none;align=left;verticalAlign=top;spacingLeft=4;spacingRight=4;overflow=hidden;rotatable=0;points=[[0,0.5],[1,0.5]];portConstraint=eastwest;whiteSpace=wrap;html=1;" parent="FDrHorXSiLE-RwHZ9RLK-39" vertex="1">
          <mxGeometry y="78" width="300" height="26" as="geometry" />
        </mxCell>
        <mxCell id="FDrHorXSiLE-RwHZ9RLK-43" value="- email: String" style="text;strokeColor=none;fillColor=none;align=left;verticalAlign=top;spacingLeft=4;spacingRight=4;overflow=hidden;rotatable=0;points=[[0,0.5],[1,0.5]];portConstraint=eastwest;whiteSpace=wrap;html=1;" parent="FDrHorXSiLE-RwHZ9RLK-39" vertex="1">
          <mxGeometry y="104" width="300" height="26" as="geometry" />
        </mxCell>
        <mxCell id="FDrHorXSiLE-RwHZ9RLK-44" value="- profile: String" style="text;strokeColor=none;fillColor=none;align=left;verticalAlign=top;spacingLeft=4;spacingRight=4;overflow=hidden;rotatable=0;points=[[0,0.5],[1,0.5]];portConstraint=eastwest;whiteSpace=wrap;html=1;" parent="FDrHorXSiLE-RwHZ9RLK-39" vertex="1">
          <mxGeometry y="130" width="300" height="26" as="geometry" />
        </mxCell>
        <mxCell id="FDrHorXSiLE-RwHZ9RLK-45" value="- date: String" style="text;strokeColor=none;fillColor=none;align=left;verticalAlign=top;spacingLeft=4;spacingRight=4;overflow=hidden;rotatable=0;points=[[0,0.5],[1,0.5]];portConstraint=eastwest;whiteSpace=wrap;html=1;" parent="FDrHorXSiLE-RwHZ9RLK-39" vertex="1">
          <mxGeometry y="156" width="300" height="26" as="geometry" />
        </mxCell>
        <mxCell id="FDrHorXSiLE-RwHZ9RLK-46" value="- comment: String" style="text;strokeColor=none;fillColor=none;align=left;verticalAlign=top;spacingLeft=4;spacingRight=4;overflow=hidden;rotatable=0;points=[[0,0.5],[1,0.5]];portConstraint=eastwest;whiteSpace=wrap;html=1;" parent="FDrHorXSiLE-RwHZ9RLK-39" vertex="1">
          <mxGeometry y="182" width="300" height="26" as="geometry" />
        </mxCell>
        <mxCell id="FDrHorXSiLE-RwHZ9RLK-47" value="- reply: Obj" style="text;strokeColor=none;fillColor=none;align=left;verticalAlign=top;spacingLeft=4;spacingRight=4;overflow=hidden;rotatable=0;points=[[0,0.5],[1,0.5]];portConstraint=eastwest;whiteSpace=wrap;html=1;" parent="FDrHorXSiLE-RwHZ9RLK-39" vertex="1">
          <mxGeometry y="208" width="300" height="26" as="geometry" />
        </mxCell>
        <mxCell id="FDrHorXSiLE-RwHZ9RLK-48" value="- like: Integer" style="text;strokeColor=none;fillColor=none;align=left;verticalAlign=top;spacingLeft=4;spacingRight=4;overflow=hidden;rotatable=0;points=[[0,0.5],[1,0.5]];portConstraint=eastwest;whiteSpace=wrap;html=1;" parent="FDrHorXSiLE-RwHZ9RLK-39" vertex="1">
          <mxGeometry y="234" width="300" height="26" as="geometry" />
        </mxCell>
        <mxCell id="FDrHorXSiLE-RwHZ9RLK-49" value="" style="line;strokeWidth=1;fillColor=none;align=left;verticalAlign=middle;spacingTop=-1;spacingLeft=3;spacingRight=3;rotatable=0;labelPosition=right;points=[];portConstraint=eastwest;strokeColor=inherit;" parent="FDrHorXSiLE-RwHZ9RLK-39" vertex="1">
          <mxGeometry y="260" width="300" height="8" as="geometry" />
        </mxCell>
        <mxCell id="FDrHorXSiLE-RwHZ9RLK-50" value="+ saveComment(commentModel): ResponseEntity" style="text;strokeColor=none;fillColor=none;align=left;verticalAlign=top;spacingLeft=4;spacingRight=4;overflow=hidden;rotatable=0;points=[[0,0.5],[1,0.5]];portConstraint=eastwest;whiteSpace=wrap;html=1;" parent="FDrHorXSiLE-RwHZ9RLK-39" vertex="1">
          <mxGeometry y="268" width="300" height="26" as="geometry" />
        </mxCell>
        <mxCell id="L4PsidqdgJCxc6JKoqgF-188" value="+ updateComment(commentModel): ResponseEntity" style="text;strokeColor=none;fillColor=none;align=left;verticalAlign=top;spacingLeft=4;spacingRight=4;overflow=hidden;rotatable=0;points=[[0,0.5],[1,0.5]];portConstraint=eastwest;whiteSpace=wrap;html=1;" vertex="1" parent="FDrHorXSiLE-RwHZ9RLK-39">
          <mxGeometry y="294" width="300" height="26" as="geometry" />
        </mxCell>
        <mxCell id="L4PsidqdgJCxc6JKoqgF-187" value="+ likeComment(commentModel): ResponseEntity" style="text;strokeColor=none;fillColor=none;align=left;verticalAlign=top;spacingLeft=4;spacingRight=4;overflow=hidden;rotatable=0;points=[[0,0.5],[1,0.5]];portConstraint=eastwest;whiteSpace=wrap;html=1;" vertex="1" parent="FDrHorXSiLE-RwHZ9RLK-39">
          <mxGeometry y="320" width="300" height="26" as="geometry" />
        </mxCell>
        <mxCell id="FDrHorXSiLE-RwHZ9RLK-51" value="Credentials" style="swimlane;fontStyle=1;align=center;verticalAlign=top;childLayout=stackLayout;horizontal=1;startSize=26;horizontalStack=0;resizeParent=1;resizeParentMax=0;resizeLast=0;collapsible=1;marginBottom=0;whiteSpace=wrap;html=1;" parent="1" vertex="1">
          <mxGeometry x="3110" y="75" width="330" height="242" as="geometry" />
        </mxCell>
        <mxCell id="FDrHorXSiLE-RwHZ9RLK-52" value="- id: String" style="text;strokeColor=none;fillColor=none;align=left;verticalAlign=top;spacingLeft=4;spacingRight=4;overflow=hidden;rotatable=0;points=[[0,0.5],[1,0.5]];portConstraint=eastwest;whiteSpace=wrap;html=1;" parent="FDrHorXSiLE-RwHZ9RLK-51" vertex="1">
          <mxGeometry y="26" width="330" height="26" as="geometry" />
        </mxCell>
        <mxCell id="FDrHorXSiLE-RwHZ9RLK-55" value="- email: String" style="text;strokeColor=none;fillColor=none;align=left;verticalAlign=top;spacingLeft=4;spacingRight=4;overflow=hidden;rotatable=0;points=[[0,0.5],[1,0.5]];portConstraint=eastwest;whiteSpace=wrap;html=1;" parent="FDrHorXSiLE-RwHZ9RLK-51" vertex="1">
          <mxGeometry y="52" width="330" height="26" as="geometry" />
        </mxCell>
        <mxCell id="FDrHorXSiLE-RwHZ9RLK-56" value="- password: String" style="text;strokeColor=none;fillColor=none;align=left;verticalAlign=top;spacingLeft=4;spacingRight=4;overflow=hidden;rotatable=0;points=[[0,0.5],[1,0.5]];portConstraint=eastwest;whiteSpace=wrap;html=1;" parent="FDrHorXSiLE-RwHZ9RLK-51" vertex="1">
          <mxGeometry y="78" width="330" height="26" as="geometry" />
        </mxCell>
        <mxCell id="FDrHorXSiLE-RwHZ9RLK-53" value="" style="line;strokeWidth=1;fillColor=none;align=left;verticalAlign=middle;spacingTop=-1;spacingLeft=3;spacingRight=3;rotatable=0;labelPosition=right;points=[];portConstraint=eastwest;strokeColor=inherit;" parent="FDrHorXSiLE-RwHZ9RLK-51" vertex="1">
          <mxGeometry y="104" width="330" height="8" as="geometry" />
        </mxCell>
        <mxCell id="L4PsidqdgJCxc6JKoqgF-190" value="+ saveCredentials(credentialsModel): ResponseEntity" style="text;strokeColor=none;fillColor=none;align=left;verticalAlign=top;spacingLeft=4;spacingRight=4;overflow=hidden;rotatable=0;points=[[0,0.5],[1,0.5]];portConstraint=eastwest;whiteSpace=wrap;html=1;" vertex="1" parent="FDrHorXSiLE-RwHZ9RLK-51">
          <mxGeometry y="112" width="330" height="26" as="geometry" />
        </mxCell>
        <mxCell id="L4PsidqdgJCxc6JKoqgF-193" value="+ getAllCredentials(): List&amp;lt;credentialsModel&amp;gt;" style="text;strokeColor=none;fillColor=none;align=left;verticalAlign=top;spacingLeft=4;spacingRight=4;overflow=hidden;rotatable=0;points=[[0,0.5],[1,0.5]];portConstraint=eastwest;whiteSpace=wrap;html=1;" vertex="1" parent="FDrHorXSiLE-RwHZ9RLK-51">
          <mxGeometry y="138" width="330" height="26" as="geometry" />
        </mxCell>
        <mxCell id="FDrHorXSiLE-RwHZ9RLK-54" value="+ findByEmail(String): credentialsModel" style="text;strokeColor=none;fillColor=none;align=left;verticalAlign=top;spacingLeft=4;spacingRight=4;overflow=hidden;rotatable=0;points=[[0,0.5],[1,0.5]];portConstraint=eastwest;whiteSpace=wrap;html=1;" parent="FDrHorXSiLE-RwHZ9RLK-51" vertex="1">
          <mxGeometry y="164" width="330" height="26" as="geometry" />
        </mxCell>
        <mxCell id="L4PsidqdgJCxc6JKoqgF-192" value="+ deleteCrential(String): ResponseEntity" style="text;strokeColor=none;fillColor=none;align=left;verticalAlign=top;spacingLeft=4;spacingRight=4;overflow=hidden;rotatable=0;points=[[0,0.5],[1,0.5]];portConstraint=eastwest;whiteSpace=wrap;html=1;" vertex="1" parent="FDrHorXSiLE-RwHZ9RLK-51">
          <mxGeometry y="190" width="330" height="26" as="geometry" />
        </mxCell>
        <mxCell id="L4PsidqdgJCxc6JKoqgF-191" value="+ updateCredential(credentialsModel): ResponseEntity" style="text;strokeColor=none;fillColor=none;align=left;verticalAlign=top;spacingLeft=4;spacingRight=4;overflow=hidden;rotatable=0;points=[[0,0.5],[1,0.5]];portConstraint=eastwest;whiteSpace=wrap;html=1;" vertex="1" parent="FDrHorXSiLE-RwHZ9RLK-51">
          <mxGeometry y="216" width="330" height="26" as="geometry" />
        </mxCell>
        <mxCell id="FDrHorXSiLE-RwHZ9RLK-57" value="Contact" style="swimlane;fontStyle=1;align=center;verticalAlign=top;childLayout=stackLayout;horizontal=1;startSize=26;horizontalStack=0;resizeParent=1;resizeParentMax=0;resizeLast=0;collapsible=1;marginBottom=0;whiteSpace=wrap;html=1;" parent="1" vertex="1">
          <mxGeometry x="2630" y="880" width="160" height="138" as="geometry" />
        </mxCell>
        <mxCell id="FDrHorXSiLE-RwHZ9RLK-58" value="- id: String" style="text;strokeColor=none;fillColor=none;align=left;verticalAlign=top;spacingLeft=4;spacingRight=4;overflow=hidden;rotatable=0;points=[[0,0.5],[1,0.5]];portConstraint=eastwest;whiteSpace=wrap;html=1;" parent="FDrHorXSiLE-RwHZ9RLK-57" vertex="1">
          <mxGeometry y="26" width="160" height="26" as="geometry" />
        </mxCell>
        <mxCell id="FDrHorXSiLE-RwHZ9RLK-59" value="- email: String" style="text;strokeColor=none;fillColor=none;align=left;verticalAlign=top;spacingLeft=4;spacingRight=4;overflow=hidden;rotatable=0;points=[[0,0.5],[1,0.5]];portConstraint=eastwest;whiteSpace=wrap;html=1;" parent="FDrHorXSiLE-RwHZ9RLK-57" vertex="1">
          <mxGeometry y="52" width="160" height="26" as="geometry" />
        </mxCell>
        <mxCell id="FDrHorXSiLE-RwHZ9RLK-60" value="- password: String" style="text;strokeColor=none;fillColor=none;align=left;verticalAlign=top;spacingLeft=4;spacingRight=4;overflow=hidden;rotatable=0;points=[[0,0.5],[1,0.5]];portConstraint=eastwest;whiteSpace=wrap;html=1;" parent="FDrHorXSiLE-RwHZ9RLK-57" vertex="1">
          <mxGeometry y="78" width="160" height="26" as="geometry" />
        </mxCell>
        <mxCell id="FDrHorXSiLE-RwHZ9RLK-61" value="" style="line;strokeWidth=1;fillColor=none;align=left;verticalAlign=middle;spacingTop=-1;spacingLeft=3;spacingRight=3;rotatable=0;labelPosition=right;points=[];portConstraint=eastwest;strokeColor=inherit;" parent="FDrHorXSiLE-RwHZ9RLK-57" vertex="1">
          <mxGeometry y="104" width="160" height="8" as="geometry" />
        </mxCell>
        <mxCell id="FDrHorXSiLE-RwHZ9RLK-62" value="+ method(type): type" style="text;strokeColor=none;fillColor=none;align=left;verticalAlign=top;spacingLeft=4;spacingRight=4;overflow=hidden;rotatable=0;points=[[0,0.5],[1,0.5]];portConstraint=eastwest;whiteSpace=wrap;html=1;" parent="FDrHorXSiLE-RwHZ9RLK-57" vertex="1">
          <mxGeometry y="112" width="160" height="26" as="geometry" />
        </mxCell>
        <mxCell id="FDrHorXSiLE-RwHZ9RLK-65" value="FAQ" style="swimlane;fontStyle=1;align=center;verticalAlign=top;childLayout=stackLayout;horizontal=1;startSize=26;horizontalStack=0;resizeParent=1;resizeParentMax=0;resizeLast=0;collapsible=1;marginBottom=0;whiteSpace=wrap;html=1;" parent="1" vertex="1">
          <mxGeometry x="2290" y="880" width="230" height="216" as="geometry" />
        </mxCell>
        <mxCell id="FDrHorXSiLE-RwHZ9RLK-66" value="- id: String" style="text;strokeColor=none;fillColor=none;align=left;verticalAlign=top;spacingLeft=4;spacingRight=4;overflow=hidden;rotatable=0;points=[[0,0.5],[1,0.5]];portConstraint=eastwest;whiteSpace=wrap;html=1;" parent="FDrHorXSiLE-RwHZ9RLK-65" vertex="1">
          <mxGeometry y="26" width="230" height="26" as="geometry" />
        </mxCell>
        <mxCell id="FDrHorXSiLE-RwHZ9RLK-67" value="- question: String" style="text;strokeColor=none;fillColor=none;align=left;verticalAlign=top;spacingLeft=4;spacingRight=4;overflow=hidden;rotatable=0;points=[[0,0.5],[1,0.5]];portConstraint=eastwest;whiteSpace=wrap;html=1;" parent="FDrHorXSiLE-RwHZ9RLK-65" vertex="1">
          <mxGeometry y="52" width="230" height="26" as="geometry" />
        </mxCell>
        <mxCell id="FDrHorXSiLE-RwHZ9RLK-68" value="- answer: String" style="text;strokeColor=none;fillColor=none;align=left;verticalAlign=top;spacingLeft=4;spacingRight=4;overflow=hidden;rotatable=0;points=[[0,0.5],[1,0.5]];portConstraint=eastwest;whiteSpace=wrap;html=1;" parent="FDrHorXSiLE-RwHZ9RLK-65" vertex="1">
          <mxGeometry y="78" width="230" height="26" as="geometry" />
        </mxCell>
        <mxCell id="FDrHorXSiLE-RwHZ9RLK-69" value="" style="line;strokeWidth=1;fillColor=none;align=left;verticalAlign=middle;spacingTop=-1;spacingLeft=3;spacingRight=3;rotatable=0;labelPosition=right;points=[];portConstraint=eastwest;strokeColor=inherit;" parent="FDrHorXSiLE-RwHZ9RLK-65" vertex="1">
          <mxGeometry y="104" width="230" height="8" as="geometry" />
        </mxCell>
        <mxCell id="L4PsidqdgJCxc6JKoqgF-194" value="+ saveFaq(faqModel): ResponseEntity" style="text;strokeColor=none;fillColor=none;align=left;verticalAlign=top;spacingLeft=4;spacingRight=4;overflow=hidden;rotatable=0;points=[[0,0.5],[1,0.5]];portConstraint=eastwest;whiteSpace=wrap;html=1;" vertex="1" parent="FDrHorXSiLE-RwHZ9RLK-65">
          <mxGeometry y="112" width="230" height="26" as="geometry" />
        </mxCell>
        <mxCell id="L4PsidqdgJCxc6JKoqgF-197" value="+ updateFaq(faqModel): ResponseEntity" style="text;strokeColor=none;fillColor=none;align=left;verticalAlign=top;spacingLeft=4;spacingRight=4;overflow=hidden;rotatable=0;points=[[0,0.5],[1,0.5]];portConstraint=eastwest;whiteSpace=wrap;html=1;" vertex="1" parent="FDrHorXSiLE-RwHZ9RLK-65">
          <mxGeometry y="138" width="230" height="26" as="geometry" />
        </mxCell>
        <mxCell id="L4PsidqdgJCxc6JKoqgF-196" value="+ deleteFaq(String): ResponseEntity" style="text;strokeColor=none;fillColor=none;align=left;verticalAlign=top;spacingLeft=4;spacingRight=4;overflow=hidden;rotatable=0;points=[[0,0.5],[1,0.5]];portConstraint=eastwest;whiteSpace=wrap;html=1;" vertex="1" parent="FDrHorXSiLE-RwHZ9RLK-65">
          <mxGeometry y="164" width="230" height="26" as="geometry" />
        </mxCell>
        <mxCell id="L4PsidqdgJCxc6JKoqgF-195" value="+ getAllFaq(): List&amp;lt;faqModel&amp;gt;" style="text;strokeColor=none;fillColor=none;align=left;verticalAlign=top;spacingLeft=4;spacingRight=4;overflow=hidden;rotatable=0;points=[[0,0.5],[1,0.5]];portConstraint=eastwest;whiteSpace=wrap;html=1;" vertex="1" parent="FDrHorXSiLE-RwHZ9RLK-65">
          <mxGeometry y="190" width="230" height="26" as="geometry" />
        </mxCell>
        <mxCell id="FDrHorXSiLE-RwHZ9RLK-71" value="Feedback" style="swimlane;fontStyle=1;align=center;verticalAlign=top;childLayout=stackLayout;horizontal=1;startSize=26;horizontalStack=0;resizeParent=1;resizeParentMax=0;resizeLast=0;collapsible=1;marginBottom=0;whiteSpace=wrap;html=1;" parent="1" vertex="1">
          <mxGeometry x="1260" y="880" width="289" height="294" as="geometry" />
        </mxCell>
        <mxCell id="FDrHorXSiLE-RwHZ9RLK-72" value="- id: String" style="text;strokeColor=none;fillColor=none;align=left;verticalAlign=top;spacingLeft=4;spacingRight=4;overflow=hidden;rotatable=0;points=[[0,0.5],[1,0.5]];portConstraint=eastwest;whiteSpace=wrap;html=1;" parent="FDrHorXSiLE-RwHZ9RLK-71" vertex="1">
          <mxGeometry y="26" width="289" height="26" as="geometry" />
        </mxCell>
        <mxCell id="FDrHorXSiLE-RwHZ9RLK-73" value="- name: String" style="text;strokeColor=none;fillColor=none;align=left;verticalAlign=top;spacingLeft=4;spacingRight=4;overflow=hidden;rotatable=0;points=[[0,0.5],[1,0.5]];portConstraint=eastwest;whiteSpace=wrap;html=1;" parent="FDrHorXSiLE-RwHZ9RLK-71" vertex="1">
          <mxGeometry y="52" width="289" height="26" as="geometry" />
        </mxCell>
        <mxCell id="FDrHorXSiLE-RwHZ9RLK-79" value="- family_name: String" style="text;strokeColor=none;fillColor=none;align=left;verticalAlign=top;spacingLeft=4;spacingRight=4;overflow=hidden;rotatable=0;points=[[0,0.5],[1,0.5]];portConstraint=eastwest;whiteSpace=wrap;html=1;" parent="FDrHorXSiLE-RwHZ9RLK-71" vertex="1">
          <mxGeometry y="78" width="289" height="26" as="geometry" />
        </mxCell>
        <mxCell id="FDrHorXSiLE-RwHZ9RLK-74" value="- email: String" style="text;strokeColor=none;fillColor=none;align=left;verticalAlign=top;spacingLeft=4;spacingRight=4;overflow=hidden;rotatable=0;points=[[0,0.5],[1,0.5]];portConstraint=eastwest;whiteSpace=wrap;html=1;" parent="FDrHorXSiLE-RwHZ9RLK-71" vertex="1">
          <mxGeometry y="104" width="289" height="26" as="geometry" />
        </mxCell>
        <mxCell id="FDrHorXSiLE-RwHZ9RLK-75" value="- picture: String" style="text;strokeColor=none;fillColor=none;align=left;verticalAlign=top;spacingLeft=4;spacingRight=4;overflow=hidden;rotatable=0;points=[[0,0.5],[1,0.5]];portConstraint=eastwest;whiteSpace=wrap;html=1;" parent="FDrHorXSiLE-RwHZ9RLK-71" vertex="1">
          <mxGeometry y="130" width="289" height="26" as="geometry" />
        </mxCell>
        <mxCell id="FDrHorXSiLE-RwHZ9RLK-76" value="- feedback: String" style="text;strokeColor=none;fillColor=none;align=left;verticalAlign=top;spacingLeft=4;spacingRight=4;overflow=hidden;rotatable=0;points=[[0,0.5],[1,0.5]];portConstraint=eastwest;whiteSpace=wrap;html=1;" parent="FDrHorXSiLE-RwHZ9RLK-71" vertex="1">
          <mxGeometry y="156" width="289" height="26" as="geometry" />
        </mxCell>
        <mxCell id="FDrHorXSiLE-RwHZ9RLK-80" value="- date: String" style="text;strokeColor=none;fillColor=none;align=left;verticalAlign=top;spacingLeft=4;spacingRight=4;overflow=hidden;rotatable=0;points=[[0,0.5],[1,0.5]];portConstraint=eastwest;whiteSpace=wrap;html=1;" parent="FDrHorXSiLE-RwHZ9RLK-71" vertex="1">
          <mxGeometry y="182" width="289" height="26" as="geometry" />
        </mxCell>
        <mxCell id="FDrHorXSiLE-RwHZ9RLK-77" value="" style="line;strokeWidth=1;fillColor=none;align=left;verticalAlign=middle;spacingTop=-1;spacingLeft=3;spacingRight=3;rotatable=0;labelPosition=right;points=[];portConstraint=eastwest;strokeColor=inherit;" parent="FDrHorXSiLE-RwHZ9RLK-71" vertex="1">
          <mxGeometry y="208" width="289" height="8" as="geometry" />
        </mxCell>
        <mxCell id="L4PsidqdgJCxc6JKoqgF-198" value="+ saveFeedback(feedbackModel): ResponseEntity" style="text;strokeColor=none;fillColor=none;align=left;verticalAlign=top;spacingLeft=4;spacingRight=4;overflow=hidden;rotatable=0;points=[[0,0.5],[1,0.5]];portConstraint=eastwest;whiteSpace=wrap;html=1;" vertex="1" parent="FDrHorXSiLE-RwHZ9RLK-71">
          <mxGeometry y="216" width="289" height="26" as="geometry" />
        </mxCell>
        <mxCell id="L4PsidqdgJCxc6JKoqgF-199" value="+ getAllFeedback(): List&amp;lt;feedbackModel&amp;gt;" style="text;strokeColor=none;fillColor=none;align=left;verticalAlign=top;spacingLeft=4;spacingRight=4;overflow=hidden;rotatable=0;points=[[0,0.5],[1,0.5]];portConstraint=eastwest;whiteSpace=wrap;html=1;" vertex="1" parent="FDrHorXSiLE-RwHZ9RLK-71">
          <mxGeometry y="242" width="289" height="26" as="geometry" />
        </mxCell>
        <mxCell id="L4PsidqdgJCxc6JKoqgF-200" value="+ deleteFeedback(String): ResponseEntity" style="text;strokeColor=none;fillColor=none;align=left;verticalAlign=top;spacingLeft=4;spacingRight=4;overflow=hidden;rotatable=0;points=[[0,0.5],[1,0.5]];portConstraint=eastwest;whiteSpace=wrap;html=1;" vertex="1" parent="FDrHorXSiLE-RwHZ9RLK-71">
          <mxGeometry y="268" width="289" height="26" as="geometry" />
        </mxCell>
        <mxCell id="FDrHorXSiLE-RwHZ9RLK-81" value="Forecast" style="swimlane;fontStyle=1;align=center;verticalAlign=top;childLayout=stackLayout;horizontal=1;startSize=26;horizontalStack=0;resizeParent=1;resizeParentMax=0;resizeLast=0;collapsible=1;marginBottom=0;whiteSpace=wrap;html=1;" parent="1" vertex="1">
          <mxGeometry x="1599" y="880" width="340" height="320" as="geometry" />
        </mxCell>
        <mxCell id="FDrHorXSiLE-RwHZ9RLK-82" value="- id: String" style="text;strokeColor=none;fillColor=none;align=left;verticalAlign=top;spacingLeft=4;spacingRight=4;overflow=hidden;rotatable=0;points=[[0,0.5],[1,0.5]];portConstraint=eastwest;whiteSpace=wrap;html=1;" parent="FDrHorXSiLE-RwHZ9RLK-81" vertex="1">
          <mxGeometry y="26" width="340" height="26" as="geometry" />
        </mxCell>
        <mxCell id="FDrHorXSiLE-RwHZ9RLK-83" value="- title: String" style="text;strokeColor=none;fillColor=none;align=left;verticalAlign=top;spacingLeft=4;spacingRight=4;overflow=hidden;rotatable=0;points=[[0,0.5],[1,0.5]];portConstraint=eastwest;whiteSpace=wrap;html=1;" parent="FDrHorXSiLE-RwHZ9RLK-81" vertex="1">
          <mxGeometry y="52" width="340" height="26" as="geometry" />
        </mxCell>
        <mxCell id="FDrHorXSiLE-RwHZ9RLK-84" value="- dateTime: String" style="text;strokeColor=none;fillColor=none;align=left;verticalAlign=top;spacingLeft=4;spacingRight=4;overflow=hidden;rotatable=0;points=[[0,0.5],[1,0.5]];portConstraint=eastwest;whiteSpace=wrap;html=1;" parent="FDrHorXSiLE-RwHZ9RLK-81" vertex="1">
          <mxGeometry y="78" width="340" height="26" as="geometry" />
        </mxCell>
        <mxCell id="FDrHorXSiLE-RwHZ9RLK-85" value="- description: String" style="text;strokeColor=none;fillColor=none;align=left;verticalAlign=top;spacingLeft=4;spacingRight=4;overflow=hidden;rotatable=0;points=[[0,0.5],[1,0.5]];portConstraint=eastwest;whiteSpace=wrap;html=1;" parent="FDrHorXSiLE-RwHZ9RLK-81" vertex="1">
          <mxGeometry y="104" width="340" height="26" as="geometry" />
        </mxCell>
        <mxCell id="FDrHorXSiLE-RwHZ9RLK-86" value="- likes: Integer" style="text;strokeColor=none;fillColor=none;align=left;verticalAlign=top;spacingLeft=4;spacingRight=4;overflow=hidden;rotatable=0;points=[[0,0.5],[1,0.5]];portConstraint=eastwest;whiteSpace=wrap;html=1;" parent="FDrHorXSiLE-RwHZ9RLK-81" vertex="1">
          <mxGeometry y="130" width="340" height="26" as="geometry" />
        </mxCell>
        <mxCell id="FDrHorXSiLE-RwHZ9RLK-89" value="- visible: Boolean" style="text;strokeColor=none;fillColor=none;align=left;verticalAlign=top;spacingLeft=4;spacingRight=4;overflow=hidden;rotatable=0;points=[[0,0.5],[1,0.5]];portConstraint=eastwest;whiteSpace=wrap;html=1;" parent="FDrHorXSiLE-RwHZ9RLK-81" vertex="1">
          <mxGeometry y="156" width="340" height="26" as="geometry" />
        </mxCell>
        <mxCell id="FDrHorXSiLE-RwHZ9RLK-87" value="" style="line;strokeWidth=1;fillColor=none;align=left;verticalAlign=middle;spacingTop=-1;spacingLeft=3;spacingRight=3;rotatable=0;labelPosition=right;points=[];portConstraint=eastwest;strokeColor=inherit;" parent="FDrHorXSiLE-RwHZ9RLK-81" vertex="1">
          <mxGeometry y="182" width="340" height="8" as="geometry" />
        </mxCell>
        <mxCell id="L4PsidqdgJCxc6JKoqgF-201" value="+ saveForecast(forecastModel): ResponseEntity" style="text;strokeColor=none;fillColor=none;align=left;verticalAlign=top;spacingLeft=4;spacingRight=4;overflow=hidden;rotatable=0;points=[[0,0.5],[1,0.5]];portConstraint=eastwest;whiteSpace=wrap;html=1;" vertex="1" parent="FDrHorXSiLE-RwHZ9RLK-81">
          <mxGeometry y="190" width="340" height="26" as="geometry" />
        </mxCell>
        <mxCell id="L4PsidqdgJCxc6JKoqgF-205" value="+ updateForecast(forecastModel): ResponseEntity" style="text;strokeColor=none;fillColor=none;align=left;verticalAlign=top;spacingLeft=4;spacingRight=4;overflow=hidden;rotatable=0;points=[[0,0.5],[1,0.5]];portConstraint=eastwest;whiteSpace=wrap;html=1;" vertex="1" parent="FDrHorXSiLE-RwHZ9RLK-81">
          <mxGeometry y="216" width="340" height="26" as="geometry" />
        </mxCell>
        <mxCell id="L4PsidqdgJCxc6JKoqgF-204" value="+ deleteForecast(String): ResponseEntity" style="text;strokeColor=none;fillColor=none;align=left;verticalAlign=top;spacingLeft=4;spacingRight=4;overflow=hidden;rotatable=0;points=[[0,0.5],[1,0.5]];portConstraint=eastwest;whiteSpace=wrap;html=1;" vertex="1" parent="FDrHorXSiLE-RwHZ9RLK-81">
          <mxGeometry y="242" width="340" height="26" as="geometry" />
        </mxCell>
        <mxCell id="L4PsidqdgJCxc6JKoqgF-203" value="+ likeForecast(forecastModel): ResponseEntity" style="text;strokeColor=none;fillColor=none;align=left;verticalAlign=top;spacingLeft=4;spacingRight=4;overflow=hidden;rotatable=0;points=[[0,0.5],[1,0.5]];portConstraint=eastwest;whiteSpace=wrap;html=1;" vertex="1" parent="FDrHorXSiLE-RwHZ9RLK-81">
          <mxGeometry y="268" width="340" height="26" as="geometry" />
        </mxCell>
        <mxCell id="L4PsidqdgJCxc6JKoqgF-202" value="+ getAllForecast(): List&amp;lt;forecastModel&amp;gt;" style="text;strokeColor=none;fillColor=none;align=left;verticalAlign=top;spacingLeft=4;spacingRight=4;overflow=hidden;rotatable=0;points=[[0,0.5],[1,0.5]];portConstraint=eastwest;whiteSpace=wrap;html=1;" vertex="1" parent="FDrHorXSiLE-RwHZ9RLK-81">
          <mxGeometry y="294" width="340" height="26" as="geometry" />
        </mxCell>
        <mxCell id="FDrHorXSiLE-RwHZ9RLK-97" value="Metrological" style="swimlane;fontStyle=1;align=center;verticalAlign=top;childLayout=stackLayout;horizontal=1;startSize=26;horizontalStack=0;resizeParent=1;resizeParentMax=0;resizeLast=0;collapsible=1;marginBottom=0;whiteSpace=wrap;html=1;" parent="1" vertex="1">
          <mxGeometry x="814" y="880" width="400" height="1022" as="geometry">
            <mxRectangle x="2320" y="880" width="110" height="30" as="alternateBounds" />
          </mxGeometry>
        </mxCell>
        <mxCell id="FDrHorXSiLE-RwHZ9RLK-98" value="- id: String" style="text;strokeColor=none;fillColor=none;align=left;verticalAlign=top;spacingLeft=4;spacingRight=4;overflow=hidden;rotatable=0;points=[[0,0.5],[1,0.5]];portConstraint=eastwest;whiteSpace=wrap;html=1;" parent="FDrHorXSiLE-RwHZ9RLK-97" vertex="1">
          <mxGeometry y="26" width="400" height="26" as="geometry" />
        </mxCell>
        <mxCell id="FDrHorXSiLE-RwHZ9RLK-99" value="- timestamp: String" style="text;strokeColor=none;fillColor=none;align=left;verticalAlign=top;spacingLeft=4;spacingRight=4;overflow=hidden;rotatable=0;points=[[0,0.5],[1,0.5]];portConstraint=eastwest;whiteSpace=wrap;html=1;" parent="FDrHorXSiLE-RwHZ9RLK-97" vertex="1">
          <mxGeometry y="52" width="400" height="26" as="geometry" />
        </mxCell>
        <mxCell id="FDrHorXSiLE-RwHZ9RLK-100" value="- location: String" style="text;strokeColor=none;fillColor=none;align=left;verticalAlign=top;spacingLeft=4;spacingRight=4;overflow=hidden;rotatable=0;points=[[0,0.5],[1,0.5]];portConstraint=eastwest;whiteSpace=wrap;html=1;" parent="FDrHorXSiLE-RwHZ9RLK-97" vertex="1">
          <mxGeometry y="78" width="400" height="26" as="geometry" />
        </mxCell>
        <mxCell id="FDrHorXSiLE-RwHZ9RLK-101" value="- temperature: String" style="text;strokeColor=none;fillColor=none;align=left;verticalAlign=top;spacingLeft=4;spacingRight=4;overflow=hidden;rotatable=0;points=[[0,0.5],[1,0.5]];portConstraint=eastwest;whiteSpace=wrap;html=1;" parent="FDrHorXSiLE-RwHZ9RLK-97" vertex="1">
          <mxGeometry y="104" width="400" height="26" as="geometry" />
        </mxCell>
        <mxCell id="FDrHorXSiLE-RwHZ9RLK-102" value="- humidity: String" style="text;strokeColor=none;fillColor=none;align=left;verticalAlign=top;spacingLeft=4;spacingRight=4;overflow=hidden;rotatable=0;points=[[0,0.5],[1,0.5]];portConstraint=eastwest;whiteSpace=wrap;html=1;" parent="FDrHorXSiLE-RwHZ9RLK-97" vertex="1">
          <mxGeometry y="130" width="400" height="26" as="geometry" />
        </mxCell>
        <mxCell id="FDrHorXSiLE-RwHZ9RLK-103" value="- wind_speed: String" style="text;strokeColor=none;fillColor=none;align=left;verticalAlign=top;spacingLeft=4;spacingRight=4;overflow=hidden;rotatable=0;points=[[0,0.5],[1,0.5]];portConstraint=eastwest;whiteSpace=wrap;html=1;" parent="FDrHorXSiLE-RwHZ9RLK-97" vertex="1">
          <mxGeometry y="156" width="400" height="26" as="geometry" />
        </mxCell>
        <mxCell id="FDrHorXSiLE-RwHZ9RLK-104" value="- precipitation: String" style="text;strokeColor=none;fillColor=none;align=left;verticalAlign=top;spacingLeft=4;spacingRight=4;overflow=hidden;rotatable=0;points=[[0,0.5],[1,0.5]];portConstraint=eastwest;whiteSpace=wrap;html=1;" parent="FDrHorXSiLE-RwHZ9RLK-97" vertex="1">
          <mxGeometry y="182" width="400" height="26" as="geometry" />
        </mxCell>
        <mxCell id="FDrHorXSiLE-RwHZ9RLK-105" value="" style="line;strokeWidth=1;fillColor=none;align=left;verticalAlign=middle;spacingTop=-1;spacingLeft=3;spacingRight=3;rotatable=0;labelPosition=right;points=[];portConstraint=eastwest;strokeColor=inherit;" parent="FDrHorXSiLE-RwHZ9RLK-97" vertex="1">
          <mxGeometry y="208" width="400" height="8" as="geometry" />
        </mxCell>
        <mxCell id="L4PsidqdgJCxc6JKoqgF-182" value="+ getCorrelationWindSpeedAndPrecipitationReverse(): List&amp;lt;Double&amp;gt;" style="text;strokeColor=none;fillColor=none;align=left;verticalAlign=top;spacingLeft=4;spacingRight=4;overflow=hidden;rotatable=0;points=[[0,0.5],[1,0.5]];portConstraint=eastwest;whiteSpace=wrap;html=1;" vertex="1" parent="FDrHorXSiLE-RwHZ9RLK-97">
          <mxGeometry y="216" width="400" height="26" as="geometry" />
        </mxCell>
        <mxCell id="L4PsidqdgJCxc6JKoqgF-176" value="+ getCorrelationHumidityAndPrecipitationReverse(): List&amp;lt;Double&amp;gt;" style="text;strokeColor=none;fillColor=none;align=left;verticalAlign=top;spacingLeft=4;spacingRight=4;overflow=hidden;rotatable=0;points=[[0,0.5],[1,0.5]];portConstraint=eastwest;whiteSpace=wrap;html=1;" vertex="1" parent="FDrHorXSiLE-RwHZ9RLK-97">
          <mxGeometry y="242" width="400" height="26" as="geometry" />
        </mxCell>
        <mxCell id="L4PsidqdgJCxc6JKoqgF-177" value="+ getCorrelationHumidityAndWindSpeedReverse(): List&amp;lt;Double&amp;gt;" style="text;strokeColor=none;fillColor=none;align=left;verticalAlign=top;spacingLeft=4;spacingRight=4;overflow=hidden;rotatable=0;points=[[0,0.5],[1,0.5]];portConstraint=eastwest;whiteSpace=wrap;html=1;" vertex="1" parent="FDrHorXSiLE-RwHZ9RLK-97">
          <mxGeometry y="268" width="400" height="26" as="geometry" />
        </mxCell>
        <mxCell id="L4PsidqdgJCxc6JKoqgF-178" value="+ getCorrelationTemperatureAndPrecipitationReverse(): List&amp;lt;Double&amp;gt;" style="text;strokeColor=none;fillColor=none;align=left;verticalAlign=top;spacingLeft=4;spacingRight=4;overflow=hidden;rotatable=0;points=[[0,0.5],[1,0.5]];portConstraint=eastwest;whiteSpace=wrap;html=1;" vertex="1" parent="FDrHorXSiLE-RwHZ9RLK-97">
          <mxGeometry y="294" width="400" height="26" as="geometry" />
        </mxCell>
        <mxCell id="L4PsidqdgJCxc6JKoqgF-179" value="+ getCorrelationTemperatureAndWindSpeedReverse(): List&amp;lt;Double&amp;gt;" style="text;strokeColor=none;fillColor=none;align=left;verticalAlign=top;spacingLeft=4;spacingRight=4;overflow=hidden;rotatable=0;points=[[0,0.5],[1,0.5]];portConstraint=eastwest;whiteSpace=wrap;html=1;" vertex="1" parent="FDrHorXSiLE-RwHZ9RLK-97">
          <mxGeometry y="320" width="400" height="26" as="geometry" />
        </mxCell>
        <mxCell id="L4PsidqdgJCxc6JKoqgF-180" value="+ getCorrelationTemperatureAndHumidityReverse(): List&amp;lt;Double&amp;gt;" style="text;strokeColor=none;fillColor=none;align=left;verticalAlign=top;spacingLeft=4;spacingRight=4;overflow=hidden;rotatable=0;points=[[0,0.5],[1,0.5]];portConstraint=eastwest;whiteSpace=wrap;html=1;" vertex="1" parent="FDrHorXSiLE-RwHZ9RLK-97">
          <mxGeometry y="346" width="400" height="26" as="geometry" />
        </mxCell>
        <mxCell id="L4PsidqdgJCxc6JKoqgF-181" value="+ getCorrelationWindSpeedAndPrecipitation(): List&amp;lt;Double&amp;gt;" style="text;strokeColor=none;fillColor=none;align=left;verticalAlign=top;spacingLeft=4;spacingRight=4;overflow=hidden;rotatable=0;points=[[0,0.5],[1,0.5]];portConstraint=eastwest;whiteSpace=wrap;html=1;" vertex="1" parent="FDrHorXSiLE-RwHZ9RLK-97">
          <mxGeometry y="372" width="400" height="26" as="geometry" />
        </mxCell>
        <mxCell id="L4PsidqdgJCxc6JKoqgF-116" value="+ getCorrelationHumidityAndPrecipitation(): List&amp;lt;Double&amp;gt;" style="text;strokeColor=none;fillColor=none;align=left;verticalAlign=top;spacingLeft=4;spacingRight=4;overflow=hidden;rotatable=0;points=[[0,0.5],[1,0.5]];portConstraint=eastwest;whiteSpace=wrap;html=1;" vertex="1" parent="FDrHorXSiLE-RwHZ9RLK-97">
          <mxGeometry y="398" width="400" height="26" as="geometry" />
        </mxCell>
        <mxCell id="L4PsidqdgJCxc6JKoqgF-115" value="+ getCorrelationHumidityAndWindSpeed(): List&amp;lt;Double&amp;gt;" style="text;strokeColor=none;fillColor=none;align=left;verticalAlign=top;spacingLeft=4;spacingRight=4;overflow=hidden;rotatable=0;points=[[0,0.5],[1,0.5]];portConstraint=eastwest;whiteSpace=wrap;html=1;" vertex="1" parent="FDrHorXSiLE-RwHZ9RLK-97">
          <mxGeometry y="424" width="400" height="26" as="geometry" />
        </mxCell>
        <mxCell id="L4PsidqdgJCxc6JKoqgF-114" value="+ getCorrelationTemperatureAndPrecipitation(): List&amp;lt;Double&amp;gt;" style="text;strokeColor=none;fillColor=none;align=left;verticalAlign=top;spacingLeft=4;spacingRight=4;overflow=hidden;rotatable=0;points=[[0,0.5],[1,0.5]];portConstraint=eastwest;whiteSpace=wrap;html=1;" vertex="1" parent="FDrHorXSiLE-RwHZ9RLK-97">
          <mxGeometry y="450" width="400" height="26" as="geometry" />
        </mxCell>
        <mxCell id="L4PsidqdgJCxc6JKoqgF-111" value="+ getCorrelationTemperatureAndWindSpeed(): List&amp;lt;Double&amp;gt;" style="text;strokeColor=none;fillColor=none;align=left;verticalAlign=top;spacingLeft=4;spacingRight=4;overflow=hidden;rotatable=0;points=[[0,0.5],[1,0.5]];portConstraint=eastwest;whiteSpace=wrap;html=1;" vertex="1" parent="FDrHorXSiLE-RwHZ9RLK-97">
          <mxGeometry y="476" width="400" height="26" as="geometry" />
        </mxCell>
        <mxCell id="L4PsidqdgJCxc6JKoqgF-110" value="+ getCorrelationTemperatureAndHumidity(): List&amp;lt;Double&amp;gt;" style="text;strokeColor=none;fillColor=none;align=left;verticalAlign=top;spacingLeft=4;spacingRight=4;overflow=hidden;rotatable=0;points=[[0,0.5],[1,0.5]];portConstraint=eastwest;whiteSpace=wrap;html=1;" vertex="1" parent="FDrHorXSiLE-RwHZ9RLK-97">
          <mxGeometry y="502" width="400" height="26" as="geometry" />
        </mxCell>
        <mxCell id="L4PsidqdgJCxc6JKoqgF-171" value="+ getMedianMetrologicalPrecipitation(): Double" style="text;strokeColor=none;fillColor=none;align=left;verticalAlign=top;spacingLeft=4;spacingRight=4;overflow=hidden;rotatable=0;points=[[0,0.5],[1,0.5]];portConstraint=eastwest;whiteSpace=wrap;html=1;" vertex="1" parent="FDrHorXSiLE-RwHZ9RLK-97">
          <mxGeometry y="528" width="400" height="26" as="geometry" />
        </mxCell>
        <mxCell id="L4PsidqdgJCxc6JKoqgF-172" value="+ getMedianMetrologicalWindSpeed(): Double" style="text;strokeColor=none;fillColor=none;align=left;verticalAlign=top;spacingLeft=4;spacingRight=4;overflow=hidden;rotatable=0;points=[[0,0.5],[1,0.5]];portConstraint=eastwest;whiteSpace=wrap;html=1;" vertex="1" parent="FDrHorXSiLE-RwHZ9RLK-97">
          <mxGeometry y="554" width="400" height="26" as="geometry" />
        </mxCell>
        <mxCell id="L4PsidqdgJCxc6JKoqgF-173" value="+ getMedianMetrologicalHumidity(): Double" style="text;strokeColor=none;fillColor=none;align=left;verticalAlign=top;spacingLeft=4;spacingRight=4;overflow=hidden;rotatable=0;points=[[0,0.5],[1,0.5]];portConstraint=eastwest;whiteSpace=wrap;html=1;" vertex="1" parent="FDrHorXSiLE-RwHZ9RLK-97">
          <mxGeometry y="580" width="400" height="26" as="geometry" />
        </mxCell>
        <mxCell id="L4PsidqdgJCxc6JKoqgF-174" value="+ getMedianMetrologicalTemperature(): Double" style="text;strokeColor=none;fillColor=none;align=left;verticalAlign=top;spacingLeft=4;spacingRight=4;overflow=hidden;rotatable=0;points=[[0,0.5],[1,0.5]];portConstraint=eastwest;whiteSpace=wrap;html=1;" vertex="1" parent="FDrHorXSiLE-RwHZ9RLK-97">
          <mxGeometry y="606" width="400" height="26" as="geometry" />
        </mxCell>
        <mxCell id="L4PsidqdgJCxc6JKoqgF-112" value="+ getModeMetrologicalPrecipitation(): Double" style="text;strokeColor=none;fillColor=none;align=left;verticalAlign=top;spacingLeft=4;spacingRight=4;overflow=hidden;rotatable=0;points=[[0,0.5],[1,0.5]];portConstraint=eastwest;whiteSpace=wrap;html=1;" vertex="1" parent="FDrHorXSiLE-RwHZ9RLK-97">
          <mxGeometry y="632" width="400" height="26" as="geometry" />
        </mxCell>
        <mxCell id="L4PsidqdgJCxc6JKoqgF-109" value="+ getModeMetrologicalWindSpeed(): Double" style="text;strokeColor=none;fillColor=none;align=left;verticalAlign=top;spacingLeft=4;spacingRight=4;overflow=hidden;rotatable=0;points=[[0,0.5],[1,0.5]];portConstraint=eastwest;whiteSpace=wrap;html=1;" vertex="1" parent="FDrHorXSiLE-RwHZ9RLK-97">
          <mxGeometry y="658" width="400" height="26" as="geometry" />
        </mxCell>
        <mxCell id="L4PsidqdgJCxc6JKoqgF-108" value="+ getModeMetrologicalHumidity(): Double" style="text;strokeColor=none;fillColor=none;align=left;verticalAlign=top;spacingLeft=4;spacingRight=4;overflow=hidden;rotatable=0;points=[[0,0.5],[1,0.5]];portConstraint=eastwest;whiteSpace=wrap;html=1;" vertex="1" parent="FDrHorXSiLE-RwHZ9RLK-97">
          <mxGeometry y="684" width="400" height="26" as="geometry" />
        </mxCell>
        <mxCell id="L4PsidqdgJCxc6JKoqgF-107" value="+ getModeMetrologicalTemperature(): Double" style="text;strokeColor=none;fillColor=none;align=left;verticalAlign=top;spacingLeft=4;spacingRight=4;overflow=hidden;rotatable=0;points=[[0,0.5],[1,0.5]];portConstraint=eastwest;whiteSpace=wrap;html=1;" vertex="1" parent="FDrHorXSiLE-RwHZ9RLK-97">
          <mxGeometry y="710" width="400" height="26" as="geometry" />
        </mxCell>
        <mxCell id="L4PsidqdgJCxc6JKoqgF-97" value="+ getAveragePrecipitationByDateRange(Date): Double" style="text;strokeColor=none;fillColor=none;align=left;verticalAlign=top;spacingLeft=4;spacingRight=4;overflow=hidden;rotatable=0;points=[[0,0.5],[1,0.5]];portConstraint=eastwest;whiteSpace=wrap;html=1;" vertex="1" parent="FDrHorXSiLE-RwHZ9RLK-97">
          <mxGeometry y="736" width="400" height="26" as="geometry" />
        </mxCell>
        <mxCell id="L4PsidqdgJCxc6JKoqgF-96" value="+ getAverageWindSpeedByDateRange(Date): Double" style="text;strokeColor=none;fillColor=none;align=left;verticalAlign=top;spacingLeft=4;spacingRight=4;overflow=hidden;rotatable=0;points=[[0,0.5],[1,0.5]];portConstraint=eastwest;whiteSpace=wrap;html=1;" vertex="1" parent="FDrHorXSiLE-RwHZ9RLK-97">
          <mxGeometry y="762" width="400" height="26" as="geometry" />
        </mxCell>
        <mxCell id="L4PsidqdgJCxc6JKoqgF-95" value="+ getAverageHumidityByDateRange(Date): Double" style="text;strokeColor=none;fillColor=none;align=left;verticalAlign=top;spacingLeft=4;spacingRight=4;overflow=hidden;rotatable=0;points=[[0,0.5],[1,0.5]];portConstraint=eastwest;whiteSpace=wrap;html=1;" vertex="1" parent="FDrHorXSiLE-RwHZ9RLK-97">
          <mxGeometry y="788" width="400" height="26" as="geometry" />
        </mxCell>
        <mxCell id="L4PsidqdgJCxc6JKoqgF-94" value="+ getAverageTemperatureByDateRange(Date): Double" style="text;strokeColor=none;fillColor=none;align=left;verticalAlign=top;spacingLeft=4;spacingRight=4;overflow=hidden;rotatable=0;points=[[0,0.5],[1,0.5]];portConstraint=eastwest;whiteSpace=wrap;html=1;" vertex="1" parent="FDrHorXSiLE-RwHZ9RLK-97">
          <mxGeometry y="814" width="400" height="26" as="geometry" />
        </mxCell>
        <mxCell id="L4PsidqdgJCxc6JKoqgF-93" value="+ getMetrologicalByDate(Date): List&amp;lt;metrologicalModel&amp;gt;" style="text;strokeColor=none;fillColor=none;align=left;verticalAlign=top;spacingLeft=4;spacingRight=4;overflow=hidden;rotatable=0;points=[[0,0.5],[1,0.5]];portConstraint=eastwest;whiteSpace=wrap;html=1;" vertex="1" parent="FDrHorXSiLE-RwHZ9RLK-97">
          <mxGeometry y="840" width="400" height="26" as="geometry" />
        </mxCell>
        <mxCell id="L4PsidqdgJCxc6JKoqgF-92" value="- convertMultiPartToFile(MultipartFile): File" style="text;strokeColor=none;fillColor=none;align=left;verticalAlign=top;spacingLeft=4;spacingRight=4;overflow=hidden;rotatable=0;points=[[0,0.5],[1,0.5]];portConstraint=eastwest;whiteSpace=wrap;html=1;" vertex="1" parent="FDrHorXSiLE-RwHZ9RLK-97">
          <mxGeometry y="866" width="400" height="26" as="geometry" />
        </mxCell>
        <mxCell id="L4PsidqdgJCxc6JKoqgF-91" value="+ importMetrological(MultipartFile): ResponseEntity" style="text;strokeColor=none;fillColor=none;align=left;verticalAlign=top;spacingLeft=4;spacingRight=4;overflow=hidden;rotatable=0;points=[[0,0.5],[1,0.5]];portConstraint=eastwest;whiteSpace=wrap;html=1;" vertex="1" parent="FDrHorXSiLE-RwHZ9RLK-97">
          <mxGeometry y="892" width="400" height="26" as="geometry" />
        </mxCell>
        <mxCell id="L4PsidqdgJCxc6JKoqgF-90" value="+ updateMetrological(metrologicalModel): ResponseEntity" style="text;strokeColor=none;fillColor=none;align=left;verticalAlign=top;spacingLeft=4;spacingRight=4;overflow=hidden;rotatable=0;points=[[0,0.5],[1,0.5]];portConstraint=eastwest;whiteSpace=wrap;html=1;" vertex="1" parent="FDrHorXSiLE-RwHZ9RLK-97">
          <mxGeometry y="918" width="400" height="26" as="geometry" />
        </mxCell>
        <mxCell id="L4PsidqdgJCxc6JKoqgF-89" value="+ deleteMetrological(String): ResponseEntity" style="text;strokeColor=none;fillColor=none;align=left;verticalAlign=top;spacingLeft=4;spacingRight=4;overflow=hidden;rotatable=0;points=[[0,0.5],[1,0.5]];portConstraint=eastwest;whiteSpace=wrap;html=1;" vertex="1" parent="FDrHorXSiLE-RwHZ9RLK-97">
          <mxGeometry y="944" width="400" height="26" as="geometry" />
        </mxCell>
        <mxCell id="L4PsidqdgJCxc6JKoqgF-88" value="+ getMetrological(String): ResponseEntity" style="text;strokeColor=none;fillColor=none;align=left;verticalAlign=top;spacingLeft=4;spacingRight=4;overflow=hidden;rotatable=0;points=[[0,0.5],[1,0.5]];portConstraint=eastwest;whiteSpace=wrap;html=1;" vertex="1" parent="FDrHorXSiLE-RwHZ9RLK-97">
          <mxGeometry y="970" width="400" height="26" as="geometry" />
        </mxCell>
        <mxCell id="L4PsidqdgJCxc6JKoqgF-87" value="+ getAllMetrological(): List&amp;lt;metrologicalModel&amp;gt;" style="text;strokeColor=none;fillColor=none;align=left;verticalAlign=top;spacingLeft=4;spacingRight=4;overflow=hidden;rotatable=0;points=[[0,0.5],[1,0.5]];portConstraint=eastwest;whiteSpace=wrap;html=1;" vertex="1" parent="FDrHorXSiLE-RwHZ9RLK-97">
          <mxGeometry y="996" width="400" height="26" as="geometry" />
        </mxCell>
        <mxCell id="FDrHorXSiLE-RwHZ9RLK-107" value="User" style="swimlane;fontStyle=1;align=center;verticalAlign=top;childLayout=stackLayout;horizontal=1;startSize=26;horizontalStack=0;resizeParent=1;resizeParentMax=0;resizeLast=0;collapsible=1;marginBottom=0;whiteSpace=wrap;html=1;" parent="1" vertex="1">
          <mxGeometry x="3640" y="1190" width="240" height="346" as="geometry" />
        </mxCell>
        <mxCell id="FDrHorXSiLE-RwHZ9RLK-108" value="- id: String" style="text;strokeColor=none;fillColor=none;align=left;verticalAlign=top;spacingLeft=4;spacingRight=4;overflow=hidden;rotatable=0;points=[[0,0.5],[1,0.5]];portConstraint=eastwest;whiteSpace=wrap;html=1;" parent="FDrHorXSiLE-RwHZ9RLK-107" vertex="1">
          <mxGeometry y="26" width="240" height="26" as="geometry" />
        </mxCell>
        <mxCell id="FDrHorXSiLE-RwHZ9RLK-109" value="- name: String" style="text;strokeColor=none;fillColor=none;align=left;verticalAlign=top;spacingLeft=4;spacingRight=4;overflow=hidden;rotatable=0;points=[[0,0.5],[1,0.5]];portConstraint=eastwest;whiteSpace=wrap;html=1;" parent="FDrHorXSiLE-RwHZ9RLK-107" vertex="1">
          <mxGeometry y="52" width="240" height="26" as="geometry" />
        </mxCell>
        <mxCell id="FDrHorXSiLE-RwHZ9RLK-110" value="- email: String" style="text;strokeColor=none;fillColor=none;align=left;verticalAlign=top;spacingLeft=4;spacingRight=4;overflow=hidden;rotatable=0;points=[[0,0.5],[1,0.5]];portConstraint=eastwest;whiteSpace=wrap;html=1;" parent="FDrHorXSiLE-RwHZ9RLK-107" vertex="1">
          <mxGeometry y="78" width="240" height="26" as="geometry" />
        </mxCell>
        <mxCell id="FDrHorXSiLE-RwHZ9RLK-111" value="- phone: String" style="text;strokeColor=none;fillColor=none;align=left;verticalAlign=top;spacingLeft=4;spacingRight=4;overflow=hidden;rotatable=0;points=[[0,0.5],[1,0.5]];portConstraint=eastwest;whiteSpace=wrap;html=1;" parent="FDrHorXSiLE-RwHZ9RLK-107" vertex="1">
          <mxGeometry y="104" width="240" height="26" as="geometry" />
        </mxCell>
        <mxCell id="FDrHorXSiLE-RwHZ9RLK-112" value="- country: String" style="text;strokeColor=none;fillColor=none;align=left;verticalAlign=top;spacingLeft=4;spacingRight=4;overflow=hidden;rotatable=0;points=[[0,0.5],[1,0.5]];portConstraint=eastwest;whiteSpace=wrap;html=1;" parent="FDrHorXSiLE-RwHZ9RLK-107" vertex="1">
          <mxGeometry y="130" width="240" height="26" as="geometry" />
        </mxCell>
        <mxCell id="FDrHorXSiLE-RwHZ9RLK-113" value="- remarks: String" style="text;strokeColor=none;fillColor=none;align=left;verticalAlign=top;spacingLeft=4;spacingRight=4;overflow=hidden;rotatable=0;points=[[0,0.5],[1,0.5]];portConstraint=eastwest;whiteSpace=wrap;html=1;" parent="FDrHorXSiLE-RwHZ9RLK-107" vertex="1">
          <mxGeometry y="156" width="240" height="26" as="geometry" />
        </mxCell>
        <mxCell id="FDrHorXSiLE-RwHZ9RLK-114" value="- active: String" style="text;strokeColor=none;fillColor=none;align=left;verticalAlign=top;spacingLeft=4;spacingRight=4;overflow=hidden;rotatable=0;points=[[0,0.5],[1,0.5]];portConstraint=eastwest;whiteSpace=wrap;html=1;" parent="FDrHorXSiLE-RwHZ9RLK-107" vertex="1">
          <mxGeometry y="182" width="240" height="26" as="geometry" />
        </mxCell>
        <mxCell id="FDrHorXSiLE-RwHZ9RLK-115" value="" style="line;strokeWidth=1;fillColor=none;align=left;verticalAlign=middle;spacingTop=-1;spacingLeft=3;spacingRight=3;rotatable=0;labelPosition=right;points=[];portConstraint=eastwest;strokeColor=inherit;" parent="FDrHorXSiLE-RwHZ9RLK-107" vertex="1">
          <mxGeometry y="208" width="240" height="8" as="geometry" />
        </mxCell>
        <mxCell id="L4PsidqdgJCxc6JKoqgF-206" value="+ saveUser(userModel): ResponseEntity" style="text;strokeColor=none;fillColor=none;align=left;verticalAlign=top;spacingLeft=4;spacingRight=4;overflow=hidden;rotatable=0;points=[[0,0.5],[1,0.5]];portConstraint=eastwest;whiteSpace=wrap;html=1;" vertex="1" parent="FDrHorXSiLE-RwHZ9RLK-107">
          <mxGeometry y="216" width="240" height="26" as="geometry" />
        </mxCell>
        <mxCell id="L4PsidqdgJCxc6JKoqgF-207" value="+ getAllUser(): List&amp;lt;userModel&amp;gt;" style="text;strokeColor=none;fillColor=none;align=left;verticalAlign=top;spacingLeft=4;spacingRight=4;overflow=hidden;rotatable=0;points=[[0,0.5],[1,0.5]];portConstraint=eastwest;whiteSpace=wrap;html=1;" vertex="1" parent="FDrHorXSiLE-RwHZ9RLK-107">
          <mxGeometry y="242" width="240" height="26" as="geometry" />
        </mxCell>
        <mxCell id="L4PsidqdgJCxc6JKoqgF-208" value="+ findByEmail(String): userModel" style="text;strokeColor=none;fillColor=none;align=left;verticalAlign=top;spacingLeft=4;spacingRight=4;overflow=hidden;rotatable=0;points=[[0,0.5],[1,0.5]];portConstraint=eastwest;whiteSpace=wrap;html=1;" vertex="1" parent="FDrHorXSiLE-RwHZ9RLK-107">
          <mxGeometry y="268" width="240" height="26" as="geometry" />
        </mxCell>
        <mxCell id="L4PsidqdgJCxc6JKoqgF-209" value="+ deleteUser(String): ResponseEntity" style="text;strokeColor=none;fillColor=none;align=left;verticalAlign=top;spacingLeft=4;spacingRight=4;overflow=hidden;rotatable=0;points=[[0,0.5],[1,0.5]];portConstraint=eastwest;whiteSpace=wrap;html=1;" vertex="1" parent="FDrHorXSiLE-RwHZ9RLK-107">
          <mxGeometry y="294" width="240" height="26" as="geometry" />
        </mxCell>
        <mxCell id="L4PsidqdgJCxc6JKoqgF-210" value="+ updateUser(userModel): ResponseEntity" style="text;strokeColor=none;fillColor=none;align=left;verticalAlign=top;spacingLeft=4;spacingRight=4;overflow=hidden;rotatable=0;points=[[0,0.5],[1,0.5]];portConstraint=eastwest;whiteSpace=wrap;html=1;" vertex="1" parent="FDrHorXSiLE-RwHZ9RLK-107">
          <mxGeometry y="320" width="240" height="26" as="geometry" />
        </mxCell>
        <mxCell id="FDrHorXSiLE-RwHZ9RLK-117" value="UserPolicy" style="swimlane;fontStyle=1;align=center;verticalAlign=top;childLayout=stackLayout;horizontal=1;startSize=26;horizontalStack=0;resizeParent=1;resizeParentMax=0;resizeLast=0;collapsible=1;marginBottom=0;whiteSpace=wrap;html=1;" parent="1" vertex="1">
          <mxGeometry x="3020" y="880" width="330" height="190" as="geometry" />
        </mxCell>
        <mxCell id="FDrHorXSiLE-RwHZ9RLK-118" value="- id: String" style="text;strokeColor=none;fillColor=none;align=left;verticalAlign=top;spacingLeft=4;spacingRight=4;overflow=hidden;rotatable=0;points=[[0,0.5],[1,0.5]];portConstraint=eastwest;whiteSpace=wrap;html=1;" parent="FDrHorXSiLE-RwHZ9RLK-117" vertex="1">
          <mxGeometry y="26" width="330" height="26" as="geometry" />
        </mxCell>
        <mxCell id="FDrHorXSiLE-RwHZ9RLK-119" value="- markdownContent: String" style="text;strokeColor=none;fillColor=none;align=left;verticalAlign=top;spacingLeft=4;spacingRight=4;overflow=hidden;rotatable=0;points=[[0,0.5],[1,0.5]];portConstraint=eastwest;whiteSpace=wrap;html=1;" parent="FDrHorXSiLE-RwHZ9RLK-117" vertex="1">
          <mxGeometry y="52" width="330" height="26" as="geometry" />
        </mxCell>
        <mxCell id="FDrHorXSiLE-RwHZ9RLK-120" value="- date: String" style="text;strokeColor=none;fillColor=none;align=left;verticalAlign=top;spacingLeft=4;spacingRight=4;overflow=hidden;rotatable=0;points=[[0,0.5],[1,0.5]];portConstraint=eastwest;whiteSpace=wrap;html=1;" parent="FDrHorXSiLE-RwHZ9RLK-117" vertex="1">
          <mxGeometry y="78" width="330" height="26" as="geometry" />
        </mxCell>
        <mxCell id="FDrHorXSiLE-RwHZ9RLK-121" value="" style="line;strokeWidth=1;fillColor=none;align=left;verticalAlign=middle;spacingTop=-1;spacingLeft=3;spacingRight=3;rotatable=0;labelPosition=right;points=[];portConstraint=eastwest;strokeColor=inherit;" parent="FDrHorXSiLE-RwHZ9RLK-117" vertex="1">
          <mxGeometry y="104" width="330" height="8" as="geometry" />
        </mxCell>
        <mxCell id="L4PsidqdgJCxc6JKoqgF-211" value="+ saveUserPolicy(userPolicyModel): ResponseEntity" style="text;strokeColor=none;fillColor=none;align=left;verticalAlign=top;spacingLeft=4;spacingRight=4;overflow=hidden;rotatable=0;points=[[0,0.5],[1,0.5]];portConstraint=eastwest;whiteSpace=wrap;html=1;" vertex="1" parent="FDrHorXSiLE-RwHZ9RLK-117">
          <mxGeometry y="112" width="330" height="26" as="geometry" />
        </mxCell>
        <mxCell id="L4PsidqdgJCxc6JKoqgF-213" value="+ updateUserPolicy(userPolicyModel): ResponseEntity" style="text;strokeColor=none;fillColor=none;align=left;verticalAlign=top;spacingLeft=4;spacingRight=4;overflow=hidden;rotatable=0;points=[[0,0.5],[1,0.5]];portConstraint=eastwest;whiteSpace=wrap;html=1;" vertex="1" parent="FDrHorXSiLE-RwHZ9RLK-117">
          <mxGeometry y="138" width="330" height="26" as="geometry" />
        </mxCell>
        <mxCell id="L4PsidqdgJCxc6JKoqgF-212" value="+ getAllUserPolicy(): List&amp;lt;userPolicyModel&amp;gt;" style="text;strokeColor=none;fillColor=none;align=left;verticalAlign=top;spacingLeft=4;spacingRight=4;overflow=hidden;rotatable=0;points=[[0,0.5],[1,0.5]];portConstraint=eastwest;whiteSpace=wrap;html=1;" vertex="1" parent="FDrHorXSiLE-RwHZ9RLK-117">
          <mxGeometry y="164" width="330" height="26" as="geometry" />
        </mxCell>
        <mxCell id="FDrHorXSiLE-RwHZ9RLK-123" value="UserTerms" style="swimlane;fontStyle=1;align=center;verticalAlign=top;childLayout=stackLayout;horizontal=1;startSize=26;horizontalStack=0;resizeParent=1;resizeParentMax=0;resizeLast=0;collapsible=1;marginBottom=0;whiteSpace=wrap;html=1;" parent="1" vertex="1">
          <mxGeometry x="3400" y="880" width="330" height="190" as="geometry" />
        </mxCell>
        <mxCell id="FDrHorXSiLE-RwHZ9RLK-124" value="- id: String" style="text;strokeColor=none;fillColor=none;align=left;verticalAlign=top;spacingLeft=4;spacingRight=4;overflow=hidden;rotatable=0;points=[[0,0.5],[1,0.5]];portConstraint=eastwest;whiteSpace=wrap;html=1;" parent="FDrHorXSiLE-RwHZ9RLK-123" vertex="1">
          <mxGeometry y="26" width="330" height="26" as="geometry" />
        </mxCell>
        <mxCell id="FDrHorXSiLE-RwHZ9RLK-125" value="- content: String" style="text;strokeColor=none;fillColor=none;align=left;verticalAlign=top;spacingLeft=4;spacingRight=4;overflow=hidden;rotatable=0;points=[[0,0.5],[1,0.5]];portConstraint=eastwest;whiteSpace=wrap;html=1;" parent="FDrHorXSiLE-RwHZ9RLK-123" vertex="1">
          <mxGeometry y="52" width="330" height="26" as="geometry" />
        </mxCell>
        <mxCell id="FDrHorXSiLE-RwHZ9RLK-126" value="- date: String" style="text;strokeColor=none;fillColor=none;align=left;verticalAlign=top;spacingLeft=4;spacingRight=4;overflow=hidden;rotatable=0;points=[[0,0.5],[1,0.5]];portConstraint=eastwest;whiteSpace=wrap;html=1;" parent="FDrHorXSiLE-RwHZ9RLK-123" vertex="1">
          <mxGeometry y="78" width="330" height="26" as="geometry" />
        </mxCell>
        <mxCell id="FDrHorXSiLE-RwHZ9RLK-127" value="" style="line;strokeWidth=1;fillColor=none;align=left;verticalAlign=middle;spacingTop=-1;spacingLeft=3;spacingRight=3;rotatable=0;labelPosition=right;points=[];portConstraint=eastwest;strokeColor=inherit;" parent="FDrHorXSiLE-RwHZ9RLK-123" vertex="1">
          <mxGeometry y="104" width="330" height="8" as="geometry" />
        </mxCell>
        <mxCell id="L4PsidqdgJCxc6JKoqgF-216" value="+ getAllUserTerms(): List&amp;lt;userTermsModel&amp;gt;" style="text;strokeColor=none;fillColor=none;align=left;verticalAlign=top;spacingLeft=4;spacingRight=4;overflow=hidden;rotatable=0;points=[[0,0.5],[1,0.5]];portConstraint=eastwest;whiteSpace=wrap;html=1;" vertex="1" parent="FDrHorXSiLE-RwHZ9RLK-123">
          <mxGeometry y="112" width="330" height="26" as="geometry" />
        </mxCell>
        <mxCell id="L4PsidqdgJCxc6JKoqgF-215" value="+ updateUserTerms(userTermsModel): ResponseEntity" style="text;strokeColor=none;fillColor=none;align=left;verticalAlign=top;spacingLeft=4;spacingRight=4;overflow=hidden;rotatable=0;points=[[0,0.5],[1,0.5]];portConstraint=eastwest;whiteSpace=wrap;html=1;" vertex="1" parent="FDrHorXSiLE-RwHZ9RLK-123">
          <mxGeometry y="138" width="330" height="26" as="geometry" />
        </mxCell>
        <mxCell id="L4PsidqdgJCxc6JKoqgF-214" value="+ saveUserTerms(userTermsModel): ResponseEntity" style="text;strokeColor=none;fillColor=none;align=left;verticalAlign=top;spacingLeft=4;spacingRight=4;overflow=hidden;rotatable=0;points=[[0,0.5],[1,0.5]];portConstraint=eastwest;whiteSpace=wrap;html=1;" vertex="1" parent="FDrHorXSiLE-RwHZ9RLK-123">
          <mxGeometry y="164" width="330" height="26" as="geometry" />
        </mxCell>
        <mxCell id="L4PsidqdgJCxc6JKoqgF-217" value="AIModel" style="swimlane;fontStyle=1;align=center;verticalAlign=top;childLayout=stackLayout;horizontal=1;startSize=26;horizontalStack=0;resizeParent=1;resizeParentMax=0;resizeLast=0;collapsible=1;marginBottom=0;whiteSpace=wrap;html=1;" vertex="1" parent="1">
          <mxGeometry x="1214" y="2080" width="400" height="970" as="geometry" />
        </mxCell>
        <mxCell id="L4PsidqdgJCxc6JKoqgF-274" value="+ air_wind_speed: Double" style="text;strokeColor=none;fillColor=none;align=left;verticalAlign=top;spacingLeft=4;spacingRight=4;overflow=hidden;rotatable=0;points=[[0,0.5],[1,0.5]];portConstraint=eastwest;whiteSpace=wrap;html=1;" vertex="1" parent="L4PsidqdgJCxc6JKoqgF-217">
          <mxGeometry y="26" width="400" height="26" as="geometry" />
        </mxCell>
        <mxCell id="L4PsidqdgJCxc6JKoqgF-273" value="+ air_humidity: Double" style="text;strokeColor=none;fillColor=none;align=left;verticalAlign=top;spacingLeft=4;spacingRight=4;overflow=hidden;rotatable=0;points=[[0,0.5],[1,0.5]];portConstraint=eastwest;whiteSpace=wrap;html=1;" vertex="1" parent="L4PsidqdgJCxc6JKoqgF-217">
          <mxGeometry y="52" width="400" height="26" as="geometry" />
        </mxCell>
        <mxCell id="L4PsidqdgJCxc6JKoqgF-272" value="+ air_temperature: Double" style="text;strokeColor=none;fillColor=none;align=left;verticalAlign=top;spacingLeft=4;spacingRight=4;overflow=hidden;rotatable=0;points=[[0,0.5],[1,0.5]];portConstraint=eastwest;whiteSpace=wrap;html=1;" vertex="1" parent="L4PsidqdgJCxc6JKoqgF-217">
          <mxGeometry y="78" width="400" height="26" as="geometry" />
        </mxCell>
        <mxCell id="L4PsidqdgJCxc6JKoqgF-271" value="+ no2: Double" style="text;strokeColor=none;fillColor=none;align=left;verticalAlign=top;spacingLeft=4;spacingRight=4;overflow=hidden;rotatable=0;points=[[0,0.5],[1,0.5]];portConstraint=eastwest;whiteSpace=wrap;html=1;" vertex="1" parent="L4PsidqdgJCxc6JKoqgF-217">
          <mxGeometry y="104" width="400" height="26" as="geometry" />
        </mxCell>
        <mxCell id="L4PsidqdgJCxc6JKoqgF-270" value="+ ozone: Double" style="text;strokeColor=none;fillColor=none;align=left;verticalAlign=top;spacingLeft=4;spacingRight=4;overflow=hidden;rotatable=0;points=[[0,0.5],[1,0.5]];portConstraint=eastwest;whiteSpace=wrap;html=1;" vertex="1" parent="L4PsidqdgJCxc6JKoqgF-217">
          <mxGeometry y="130" width="400" height="26" as="geometry" />
        </mxCell>
        <mxCell id="L4PsidqdgJCxc6JKoqgF-269" value="+ co2: Double" style="text;strokeColor=none;fillColor=none;align=left;verticalAlign=top;spacingLeft=4;spacingRight=4;overflow=hidden;rotatable=0;points=[[0,0.5],[1,0.5]];portConstraint=eastwest;whiteSpace=wrap;html=1;" vertex="1" parent="L4PsidqdgJCxc6JKoqgF-217">
          <mxGeometry y="156" width="400" height="26" as="geometry" />
        </mxCell>
        <mxCell id="L4PsidqdgJCxc6JKoqgF-268" value="+ pm10: Double" style="text;strokeColor=none;fillColor=none;align=left;verticalAlign=top;spacingLeft=4;spacingRight=4;overflow=hidden;rotatable=0;points=[[0,0.5],[1,0.5]];portConstraint=eastwest;whiteSpace=wrap;html=1;" vertex="1" parent="L4PsidqdgJCxc6JKoqgF-217">
          <mxGeometry y="182" width="400" height="26" as="geometry" />
        </mxCell>
        <mxCell id="L4PsidqdgJCxc6JKoqgF-267" value="+ pm25: Double" style="text;strokeColor=none;fillColor=none;align=left;verticalAlign=top;spacingLeft=4;spacingRight=4;overflow=hidden;rotatable=0;points=[[0,0.5],[1,0.5]];portConstraint=eastwest;whiteSpace=wrap;html=1;" vertex="1" parent="L4PsidqdgJCxc6JKoqgF-217">
          <mxGeometry y="208" width="400" height="26" as="geometry" />
        </mxCell>
        <mxCell id="L4PsidqdgJCxc6JKoqgF-221" value="+ temperature: Double" style="text;strokeColor=none;fillColor=none;align=left;verticalAlign=top;spacingLeft=4;spacingRight=4;overflow=hidden;rotatable=0;points=[[0,0.5],[1,0.5]];portConstraint=eastwest;whiteSpace=wrap;html=1;" vertex="1" parent="L4PsidqdgJCxc6JKoqgF-217">
          <mxGeometry y="234" width="400" height="26" as="geometry" />
        </mxCell>
        <mxCell id="L4PsidqdgJCxc6JKoqgF-222" value="+ humidity: Double" style="text;strokeColor=none;fillColor=none;align=left;verticalAlign=top;spacingLeft=4;spacingRight=4;overflow=hidden;rotatable=0;points=[[0,0.5],[1,0.5]];portConstraint=eastwest;whiteSpace=wrap;html=1;" vertex="1" parent="L4PsidqdgJCxc6JKoqgF-217">
          <mxGeometry y="260" width="400" height="26" as="geometry" />
        </mxCell>
        <mxCell id="L4PsidqdgJCxc6JKoqgF-223" value="+ wind_speed: Double" style="text;strokeColor=none;fillColor=none;align=left;verticalAlign=top;spacingLeft=4;spacingRight=4;overflow=hidden;rotatable=0;points=[[0,0.5],[1,0.5]];portConstraint=eastwest;whiteSpace=wrap;html=1;" vertex="1" parent="L4PsidqdgJCxc6JKoqgF-217">
          <mxGeometry y="286" width="400" height="26" as="geometry" />
        </mxCell>
        <mxCell id="L4PsidqdgJCxc6JKoqgF-224" value="+ precipitation: Double" style="text;strokeColor=none;fillColor=none;align=left;verticalAlign=top;spacingLeft=4;spacingRight=4;overflow=hidden;rotatable=0;points=[[0,0.5],[1,0.5]];portConstraint=eastwest;whiteSpace=wrap;html=1;" vertex="1" parent="L4PsidqdgJCxc6JKoqgF-217">
          <mxGeometry y="312" width="400" height="26" as="geometry" />
        </mxCell>
        <mxCell id="L4PsidqdgJCxc6JKoqgF-225" value="" style="line;strokeWidth=1;fillColor=none;align=left;verticalAlign=middle;spacingTop=-1;spacingLeft=3;spacingRight=3;rotatable=0;labelPosition=right;points=[];portConstraint=eastwest;strokeColor=inherit;" vertex="1" parent="L4PsidqdgJCxc6JKoqgF-217">
          <mxGeometry y="338" width="400" height="8" as="geometry" />
        </mxCell>
        <mxCell id="L4PsidqdgJCxc6JKoqgF-226" value="+ predictAndReceiveAirHumidity(Double[]): ResponseEntity" style="text;strokeColor=none;fillColor=none;align=left;verticalAlign=top;spacingLeft=4;spacingRight=4;overflow=hidden;rotatable=0;points=[[0,0.5],[1,0.5]];portConstraint=eastwest;whiteSpace=wrap;html=1;" vertex="1" parent="L4PsidqdgJCxc6JKoqgF-217">
          <mxGeometry y="346" width="400" height="26" as="geometry" />
        </mxCell>
        <mxCell id="L4PsidqdgJCxc6JKoqgF-227" value="+ receiveAirHumidityPrediction(Double): ResponseEntity" style="text;strokeColor=none;fillColor=none;align=left;verticalAlign=top;spacingLeft=4;spacingRight=4;overflow=hidden;rotatable=0;points=[[0,0.5],[1,0.5]];portConstraint=eastwest;whiteSpace=wrap;html=1;" vertex="1" parent="L4PsidqdgJCxc6JKoqgF-217">
          <mxGeometry y="372" width="400" height="26" as="geometry" />
        </mxCell>
        <mxCell id="L4PsidqdgJCxc6JKoqgF-228" value="+ predictAndReceivePm25(Double[]): ResponseEntity" style="text;strokeColor=none;fillColor=none;align=left;verticalAlign=top;spacingLeft=4;spacingRight=4;overflow=hidden;rotatable=0;points=[[0,0.5],[1,0.5]];portConstraint=eastwest;whiteSpace=wrap;html=1;" vertex="1" parent="L4PsidqdgJCxc6JKoqgF-217">
          <mxGeometry y="398" width="400" height="26" as="geometry" />
        </mxCell>
        <mxCell id="L4PsidqdgJCxc6JKoqgF-229" value="+ receivePm25Prediction(Double): ResponseEntity" style="text;strokeColor=none;fillColor=none;align=left;verticalAlign=top;spacingLeft=4;spacingRight=4;overflow=hidden;rotatable=0;points=[[0,0.5],[1,0.5]];portConstraint=eastwest;whiteSpace=wrap;html=1;" vertex="1" parent="L4PsidqdgJCxc6JKoqgF-217">
          <mxGeometry y="424" width="400" height="26" as="geometry" />
        </mxCell>
        <mxCell id="L4PsidqdgJCxc6JKoqgF-230" value="+ predictAndReceivePm10(Double[]): ResponseEntity" style="text;strokeColor=none;fillColor=none;align=left;verticalAlign=top;spacingLeft=4;spacingRight=4;overflow=hidden;rotatable=0;points=[[0,0.5],[1,0.5]];portConstraint=eastwest;whiteSpace=wrap;html=1;" vertex="1" parent="L4PsidqdgJCxc6JKoqgF-217">
          <mxGeometry y="450" width="400" height="26" as="geometry" />
        </mxCell>
        <mxCell id="L4PsidqdgJCxc6JKoqgF-231" value="+ receivePm10Prediction(Double): ResponseEntity" style="text;strokeColor=none;fillColor=none;align=left;verticalAlign=top;spacingLeft=4;spacingRight=4;overflow=hidden;rotatable=0;points=[[0,0.5],[1,0.5]];portConstraint=eastwest;whiteSpace=wrap;html=1;" vertex="1" parent="L4PsidqdgJCxc6JKoqgF-217">
          <mxGeometry y="476" width="400" height="26" as="geometry" />
        </mxCell>
        <mxCell id="L4PsidqdgJCxc6JKoqgF-232" value="+ predictAndReceiveCo2(Double[]): ResponseEntity" style="text;strokeColor=none;fillColor=none;align=left;verticalAlign=top;spacingLeft=4;spacingRight=4;overflow=hidden;rotatable=0;points=[[0,0.5],[1,0.5]];portConstraint=eastwest;whiteSpace=wrap;html=1;" vertex="1" parent="L4PsidqdgJCxc6JKoqgF-217">
          <mxGeometry y="502" width="400" height="26" as="geometry" />
        </mxCell>
        <mxCell id="L4PsidqdgJCxc6JKoqgF-233" value="+ receiveCo2Prediction(Double): ResponseEntity" style="text;strokeColor=none;fillColor=none;align=left;verticalAlign=top;spacingLeft=4;spacingRight=4;overflow=hidden;rotatable=0;points=[[0,0.5],[1,0.5]];portConstraint=eastwest;whiteSpace=wrap;html=1;" vertex="1" parent="L4PsidqdgJCxc6JKoqgF-217">
          <mxGeometry y="528" width="400" height="26" as="geometry" />
        </mxCell>
        <mxCell id="L4PsidqdgJCxc6JKoqgF-234" value="+ predictAndReceiveOzone(Double[]): ResponseEntity" style="text;strokeColor=none;fillColor=none;align=left;verticalAlign=top;spacingLeft=4;spacingRight=4;overflow=hidden;rotatable=0;points=[[0,0.5],[1,0.5]];portConstraint=eastwest;whiteSpace=wrap;html=1;" vertex="1" parent="L4PsidqdgJCxc6JKoqgF-217">
          <mxGeometry y="554" width="400" height="26" as="geometry" />
        </mxCell>
        <mxCell id="L4PsidqdgJCxc6JKoqgF-235" value="+ receiveOzonePrediction(Double): ResponseEntity" style="text;strokeColor=none;fillColor=none;align=left;verticalAlign=top;spacingLeft=4;spacingRight=4;overflow=hidden;rotatable=0;points=[[0,0.5],[1,0.5]];portConstraint=eastwest;whiteSpace=wrap;html=1;" vertex="1" parent="L4PsidqdgJCxc6JKoqgF-217">
          <mxGeometry y="580" width="400" height="26" as="geometry" />
        </mxCell>
        <mxCell id="L4PsidqdgJCxc6JKoqgF-236" value="+ predictAndReceiveNo2(Double[]): ResponseEntity" style="text;strokeColor=none;fillColor=none;align=left;verticalAlign=top;spacingLeft=4;spacingRight=4;overflow=hidden;rotatable=0;points=[[0,0.5],[1,0.5]];portConstraint=eastwest;whiteSpace=wrap;html=1;" vertex="1" parent="L4PsidqdgJCxc6JKoqgF-217">
          <mxGeometry y="606" width="400" height="26" as="geometry" />
        </mxCell>
        <mxCell id="L4PsidqdgJCxc6JKoqgF-237" value="+ receiveNo2Prediction(Double): ResponseEntity" style="text;strokeColor=none;fillColor=none;align=left;verticalAlign=top;spacingLeft=4;spacingRight=4;overflow=hidden;rotatable=0;points=[[0,0.5],[1,0.5]];portConstraint=eastwest;whiteSpace=wrap;html=1;" vertex="1" parent="L4PsidqdgJCxc6JKoqgF-217">
          <mxGeometry y="632" width="400" height="26" as="geometry" />
        </mxCell>
        <mxCell id="L4PsidqdgJCxc6JKoqgF-238" value="+ predictAndReceiveAirTemperature(Double[]): ResponseEntity" style="text;strokeColor=none;fillColor=none;align=left;verticalAlign=top;spacingLeft=4;spacingRight=4;overflow=hidden;rotatable=0;points=[[0,0.5],[1,0.5]];portConstraint=eastwest;whiteSpace=wrap;html=1;" vertex="1" parent="L4PsidqdgJCxc6JKoqgF-217">
          <mxGeometry y="658" width="400" height="26" as="geometry" />
        </mxCell>
        <mxCell id="L4PsidqdgJCxc6JKoqgF-239" value="+ receiveAirTemperaturePrediction(Double): ResponseEntity" style="text;strokeColor=none;fillColor=none;align=left;verticalAlign=top;spacingLeft=4;spacingRight=4;overflow=hidden;rotatable=0;points=[[0,0.5],[1,0.5]];portConstraint=eastwest;whiteSpace=wrap;html=1;" vertex="1" parent="L4PsidqdgJCxc6JKoqgF-217">
          <mxGeometry y="684" width="400" height="26" as="geometry" />
        </mxCell>
        <mxCell id="L4PsidqdgJCxc6JKoqgF-240" value="+ predictAndReceiveAirWindSpeed(Double[]): ResponseEntity" style="text;strokeColor=none;fillColor=none;align=left;verticalAlign=top;spacingLeft=4;spacingRight=4;overflow=hidden;rotatable=0;points=[[0,0.5],[1,0.5]];portConstraint=eastwest;whiteSpace=wrap;html=1;" vertex="1" parent="L4PsidqdgJCxc6JKoqgF-217">
          <mxGeometry y="710" width="400" height="26" as="geometry" />
        </mxCell>
        <mxCell id="L4PsidqdgJCxc6JKoqgF-241" value="+ receiveAirWindSpeedPrediction(Double): ResponseEntity" style="text;strokeColor=none;fillColor=none;align=left;verticalAlign=top;spacingLeft=4;spacingRight=4;overflow=hidden;rotatable=0;points=[[0,0.5],[1,0.5]];portConstraint=eastwest;whiteSpace=wrap;html=1;" vertex="1" parent="L4PsidqdgJCxc6JKoqgF-217">
          <mxGeometry y="736" width="400" height="26" as="geometry" />
        </mxCell>
        <mxCell id="L4PsidqdgJCxc6JKoqgF-242" value="+ predictAndReceiveTemperature(Double[]): ResponseEntity" style="text;strokeColor=none;fillColor=none;align=left;verticalAlign=top;spacingLeft=4;spacingRight=4;overflow=hidden;rotatable=0;points=[[0,0.5],[1,0.5]];portConstraint=eastwest;whiteSpace=wrap;html=1;" vertex="1" parent="L4PsidqdgJCxc6JKoqgF-217">
          <mxGeometry y="762" width="400" height="26" as="geometry" />
        </mxCell>
        <mxCell id="L4PsidqdgJCxc6JKoqgF-243" value="+ receiveTemperaturePrediction(Double): ResponseEntity" style="text;strokeColor=none;fillColor=none;align=left;verticalAlign=top;spacingLeft=4;spacingRight=4;overflow=hidden;rotatable=0;points=[[0,0.5],[1,0.5]];portConstraint=eastwest;whiteSpace=wrap;html=1;" vertex="1" parent="L4PsidqdgJCxc6JKoqgF-217">
          <mxGeometry y="788" width="400" height="26" as="geometry" />
        </mxCell>
        <mxCell id="L4PsidqdgJCxc6JKoqgF-244" value="+ predictAndReceiveWindSpeed(Double[]): ResponseEntity" style="text;strokeColor=none;fillColor=none;align=left;verticalAlign=top;spacingLeft=4;spacingRight=4;overflow=hidden;rotatable=0;points=[[0,0.5],[1,0.5]];portConstraint=eastwest;whiteSpace=wrap;html=1;" vertex="1" parent="L4PsidqdgJCxc6JKoqgF-217">
          <mxGeometry y="814" width="400" height="26" as="geometry" />
        </mxCell>
        <mxCell id="L4PsidqdgJCxc6JKoqgF-245" value="+ receiveWindSpeedPrediction(Double): ResponseEntity" style="text;strokeColor=none;fillColor=none;align=left;verticalAlign=top;spacingLeft=4;spacingRight=4;overflow=hidden;rotatable=0;points=[[0,0.5],[1,0.5]];portConstraint=eastwest;whiteSpace=wrap;html=1;" vertex="1" parent="L4PsidqdgJCxc6JKoqgF-217">
          <mxGeometry y="840" width="400" height="26" as="geometry" />
        </mxCell>
        <mxCell id="L4PsidqdgJCxc6JKoqgF-246" value="+ predictAndReceiveHumidity(Double[]): ResponseEntity" style="text;strokeColor=none;fillColor=none;align=left;verticalAlign=top;spacingLeft=4;spacingRight=4;overflow=hidden;rotatable=0;points=[[0,0.5],[1,0.5]];portConstraint=eastwest;whiteSpace=wrap;html=1;" vertex="1" parent="L4PsidqdgJCxc6JKoqgF-217">
          <mxGeometry y="866" width="400" height="26" as="geometry" />
        </mxCell>
        <mxCell id="L4PsidqdgJCxc6JKoqgF-247" value="+ receiveHumidityPrediction(Double): ResponseEntity" style="text;strokeColor=none;fillColor=none;align=left;verticalAlign=top;spacingLeft=4;spacingRight=4;overflow=hidden;rotatable=0;points=[[0,0.5],[1,0.5]];portConstraint=eastwest;whiteSpace=wrap;html=1;" vertex="1" parent="L4PsidqdgJCxc6JKoqgF-217">
          <mxGeometry y="892" width="400" height="26" as="geometry" />
        </mxCell>
        <mxCell id="L4PsidqdgJCxc6JKoqgF-248" value="+ predictAndReceivePrecipitation(Double[]): ResponseEntity" style="text;strokeColor=none;fillColor=none;align=left;verticalAlign=top;spacingLeft=4;spacingRight=4;overflow=hidden;rotatable=0;points=[[0,0.5],[1,0.5]];portConstraint=eastwest;whiteSpace=wrap;html=1;" vertex="1" parent="L4PsidqdgJCxc6JKoqgF-217">
          <mxGeometry y="918" width="400" height="26" as="geometry" />
        </mxCell>
        <mxCell id="L4PsidqdgJCxc6JKoqgF-249" value="+ receivePrecipitationPrediction(Double): ResponseEntity" style="text;strokeColor=none;fillColor=none;align=left;verticalAlign=top;spacingLeft=4;spacingRight=4;overflow=hidden;rotatable=0;points=[[0,0.5],[1,0.5]];portConstraint=eastwest;whiteSpace=wrap;html=1;" vertex="1" parent="L4PsidqdgJCxc6JKoqgF-217">
          <mxGeometry y="944" width="400" height="26" as="geometry" />
        </mxCell>
        <mxCell id="L4PsidqdgJCxc6JKoqgF-279" value="" style="endArrow=none;html=1;rounded=0;exitX=0.5;exitY=0;exitDx=0;exitDy=0;entryX=0.267;entryY=1.073;entryDx=0;entryDy=0;entryPerimeter=0;" edge="1" parent="1" source="FDrHorXSiLE-RwHZ9RLK-5" target="L4PsidqdgJCxc6JKoqgF-191">
          <mxGeometry width="50" height="50" relative="1" as="geometry">
            <mxPoint x="3150" y="500" as="sourcePoint" />
            <mxPoint x="3210" y="350" as="targetPoint" />
            <Array as="points">
              <mxPoint x="2975" y="360" />
              <mxPoint x="3198" y="360" />
            </Array>
          </mxGeometry>
        </mxCell>
        <mxCell id="L4PsidqdgJCxc6JKoqgF-280" value="" style="endArrow=none;html=1;rounded=0;exitX=0.5;exitY=0;exitDx=0;exitDy=0;entryX=0.757;entryY=1.115;entryDx=0;entryDy=0;entryPerimeter=0;" edge="1" parent="1" source="FDrHorXSiLE-RwHZ9RLK-107" target="L4PsidqdgJCxc6JKoqgF-191">
          <mxGeometry width="50" height="50" relative="1" as="geometry">
            <mxPoint x="3210" y="380" as="sourcePoint" />
            <mxPoint x="3320" y="350" as="targetPoint" />
            <Array as="points">
              <mxPoint x="3760" y="360" />
              <mxPoint x="3360" y="360" />
            </Array>
          </mxGeometry>
        </mxCell>
        <mxCell id="L4PsidqdgJCxc6JKoqgF-281" value="" style="endArrow=none;html=1;rounded=0;exitX=0.901;exitY=1.214;exitDx=0;exitDy=0;exitPerimeter=0;entryX=0.5;entryY=0;entryDx=0;entryDy=0;" edge="1" parent="1" source="FDrHorXSiLE-RwHZ9RLK-130" target="FDrHorXSiLE-RwHZ9RLK-123">
          <mxGeometry width="50" height="50" relative="1" as="geometry">
            <mxPoint x="2990" y="1110" as="sourcePoint" />
            <mxPoint x="3040" y="1060" as="targetPoint" />
            <Array as="points">
              <mxPoint x="3099" y="770" />
              <mxPoint x="3565" y="770" />
            </Array>
          </mxGeometry>
        </mxCell>
        <mxCell id="L4PsidqdgJCxc6JKoqgF-282" value="" style="endArrow=none;html=1;rounded=0;exitX=0.765;exitY=1.214;exitDx=0;exitDy=0;exitPerimeter=0;entryX=0.5;entryY=0;entryDx=0;entryDy=0;" edge="1" parent="1" source="FDrHorXSiLE-RwHZ9RLK-130" target="FDrHorXSiLE-RwHZ9RLK-117">
          <mxGeometry width="50" height="50" relative="1" as="geometry">
            <mxPoint x="3420" y="650" as="sourcePoint" />
            <mxPoint x="3470" y="600" as="targetPoint" />
            <Array as="points">
              <mxPoint x="3057" y="800" />
              <mxPoint x="3185" y="800" />
            </Array>
          </mxGeometry>
        </mxCell>
        <mxCell id="L4PsidqdgJCxc6JKoqgF-283" value="" style="endArrow=none;html=1;rounded=0;entryX=0.611;entryY=1.171;entryDx=0;entryDy=0;entryPerimeter=0;exitX=0.5;exitY=0;exitDx=0;exitDy=0;" edge="1" parent="1" source="FDrHorXSiLE-RwHZ9RLK-57" target="FDrHorXSiLE-RwHZ9RLK-130">
          <mxGeometry width="50" height="50" relative="1" as="geometry">
            <mxPoint x="2910" y="630" as="sourcePoint" />
            <mxPoint x="2960" y="580" as="targetPoint" />
            <Array as="points">
              <mxPoint x="2710" y="840" />
              <mxPoint x="3010" y="840" />
            </Array>
          </mxGeometry>
        </mxCell>
        <mxCell id="L4PsidqdgJCxc6JKoqgF-284" value="" style="endArrow=none;html=1;rounded=0;entryX=0.486;entryY=1.171;entryDx=0;entryDy=0;entryPerimeter=0;exitX=0.5;exitY=0;exitDx=0;exitDy=0;" edge="1" parent="1" source="FDrHorXSiLE-RwHZ9RLK-65" target="FDrHorXSiLE-RwHZ9RLK-130">
          <mxGeometry width="50" height="50" relative="1" as="geometry">
            <mxPoint x="2910" y="630" as="sourcePoint" />
            <mxPoint x="2960" y="580" as="targetPoint" />
            <Array as="points">
              <mxPoint x="2405" y="820" />
              <mxPoint x="2970" y="820" />
            </Array>
          </mxGeometry>
        </mxCell>
        <mxCell id="L4PsidqdgJCxc6JKoqgF-285" value="" style="endArrow=none;html=1;rounded=0;entryX=0.36;entryY=1.214;entryDx=0;entryDy=0;entryPerimeter=0;exitX=0.5;exitY=0;exitDx=0;exitDy=0;" edge="1" parent="1" source="FDrHorXSiLE-RwHZ9RLK-27" target="FDrHorXSiLE-RwHZ9RLK-130">
          <mxGeometry width="50" height="50" relative="1" as="geometry">
            <mxPoint x="2600" y="630" as="sourcePoint" />
            <mxPoint x="2650" y="580" as="targetPoint" />
            <Array as="points">
              <mxPoint x="2120" y="800" />
              <mxPoint x="2930" y="800" />
            </Array>
          </mxGeometry>
        </mxCell>
        <mxCell id="L4PsidqdgJCxc6JKoqgF-286" value="" style="endArrow=none;html=1;rounded=0;entryX=0.238;entryY=1.256;entryDx=0;entryDy=0;entryPerimeter=0;exitX=0.5;exitY=0;exitDx=0;exitDy=0;" edge="1" parent="1" source="FDrHorXSiLE-RwHZ9RLK-81" target="FDrHorXSiLE-RwHZ9RLK-130">
          <mxGeometry width="50" height="50" relative="1" as="geometry">
            <mxPoint x="2250" y="630" as="sourcePoint" />
            <mxPoint x="2300" y="580" as="targetPoint" />
            <Array as="points">
              <mxPoint x="1769" y="770" />
              <mxPoint x="2894" y="770" />
            </Array>
          </mxGeometry>
        </mxCell>
        <mxCell id="L4PsidqdgJCxc6JKoqgF-287" value="" style="endArrow=none;html=1;rounded=0;entryX=0.117;entryY=1.183;entryDx=0;entryDy=0;entryPerimeter=0;exitX=0.5;exitY=0;exitDx=0;exitDy=0;" edge="1" parent="1" source="FDrHorXSiLE-RwHZ9RLK-71" target="FDrHorXSiLE-RwHZ9RLK-130">
          <mxGeometry width="50" height="50" relative="1" as="geometry">
            <mxPoint x="2800" y="610" as="sourcePoint" />
            <mxPoint x="2850" y="560" as="targetPoint" />
            <Array as="points">
              <mxPoint x="1405" y="750" />
              <mxPoint x="2856" y="750" />
            </Array>
          </mxGeometry>
        </mxCell>
        <mxCell id="L4PsidqdgJCxc6JKoqgF-288" value="" style="endArrow=none;html=1;rounded=0;exitX=0.5;exitY=0;exitDx=0;exitDy=0;entryX=0;entryY=0.5;entryDx=0;entryDy=0;" edge="1" parent="1" source="FDrHorXSiLE-RwHZ9RLK-97" target="FDrHorXSiLE-RwHZ9RLK-130">
          <mxGeometry width="50" height="50" relative="1" as="geometry">
            <mxPoint x="1350" y="750" as="sourcePoint" />
            <mxPoint x="1400" y="700" as="targetPoint" />
            <Array as="points">
              <mxPoint x="1014" y="707" />
            </Array>
          </mxGeometry>
        </mxCell>
        <mxCell id="L4PsidqdgJCxc6JKoqgF-289" value="" style="endArrow=none;html=1;rounded=0;exitX=0.467;exitY=0;exitDx=0;exitDy=0;exitPerimeter=0;entryX=0;entryY=0.5;entryDx=0;entryDy=0;" edge="1" parent="1" source="FDrHorXSiLE-RwHZ9RLK-13" target="FDrHorXSiLE-RwHZ9RLK-132">
          <mxGeometry width="50" height="50" relative="1" as="geometry">
            <mxPoint x="770" y="750" as="sourcePoint" />
            <mxPoint x="820" y="700" as="targetPoint" />
            <Array as="points">
              <mxPoint x="507" y="680" />
            </Array>
          </mxGeometry>
        </mxCell>
        <mxCell id="L4PsidqdgJCxc6JKoqgF-290" value="" style="endArrow=none;html=1;rounded=0;entryX=0;entryY=0.5;entryDx=0;entryDy=0;exitX=0.493;exitY=1.214;exitDx=0;exitDy=0;exitPerimeter=0;" edge="1" parent="1" source="L4PsidqdgJCxc6JKoqgF-214" target="FDrHorXSiLE-RwHZ9RLK-108">
          <mxGeometry width="50" height="50" relative="1" as="geometry">
            <mxPoint x="3520" y="1290" as="sourcePoint" />
            <mxPoint x="3570" y="1240" as="targetPoint" />
            <Array as="points">
              <mxPoint x="3563" y="1229" />
            </Array>
          </mxGeometry>
        </mxCell>
        <mxCell id="L4PsidqdgJCxc6JKoqgF-291" value="" style="endArrow=none;html=1;rounded=0;entryX=0;entryY=0.5;entryDx=0;entryDy=0;exitX=0.464;exitY=1.189;exitDx=0;exitDy=0;exitPerimeter=0;" edge="1" parent="1" source="L4PsidqdgJCxc6JKoqgF-212" target="FDrHorXSiLE-RwHZ9RLK-109">
          <mxGeometry width="50" height="50" relative="1" as="geometry">
            <mxPoint x="3520" y="1290" as="sourcePoint" />
            <mxPoint x="3570" y="1240" as="targetPoint" />
            <Array as="points">
              <mxPoint x="3174" y="1255" />
            </Array>
          </mxGeometry>
        </mxCell>
        <mxCell id="L4PsidqdgJCxc6JKoqgF-292" value="" style="endArrow=none;html=1;rounded=0;entryX=0;entryY=0.5;entryDx=0;entryDy=0;exitX=0.498;exitY=1.114;exitDx=0;exitDy=0;exitPerimeter=0;" edge="1" parent="1" source="FDrHorXSiLE-RwHZ9RLK-62" target="FDrHorXSiLE-RwHZ9RLK-110">
          <mxGeometry width="50" height="50" relative="1" as="geometry">
            <mxPoint x="2710" y="1030" as="sourcePoint" />
            <mxPoint x="3170" y="1180" as="targetPoint" />
            <Array as="points">
              <mxPoint x="2710" y="1100" />
              <mxPoint x="3000" y="1281" />
            </Array>
          </mxGeometry>
        </mxCell>
        <mxCell id="L4PsidqdgJCxc6JKoqgF-293" value="" style="endArrow=none;html=1;rounded=0;exitX=0.487;exitY=1.218;exitDx=0;exitDy=0;exitPerimeter=0;entryX=0;entryY=0.5;entryDx=0;entryDy=0;" edge="1" parent="1" source="L4PsidqdgJCxc6JKoqgF-195" target="FDrHorXSiLE-RwHZ9RLK-111">
          <mxGeometry width="50" height="50" relative="1" as="geometry">
            <mxPoint x="3120" y="1230" as="sourcePoint" />
            <mxPoint x="3170" y="1180" as="targetPoint" />
            <Array as="points">
              <mxPoint x="2402" y="1170" />
              <mxPoint x="3000" y="1307" />
            </Array>
          </mxGeometry>
        </mxCell>
        <mxCell id="L4PsidqdgJCxc6JKoqgF-294" value="" style="endArrow=none;html=1;rounded=0;exitX=1;exitY=0.5;exitDx=0;exitDy=0;entryX=0;entryY=0.5;entryDx=0;entryDy=0;" edge="1" parent="1" source="L4PsidqdgJCxc6JKoqgF-183" target="FDrHorXSiLE-RwHZ9RLK-112">
          <mxGeometry width="50" height="50" relative="1" as="geometry">
            <mxPoint x="2770" y="1230" as="sourcePoint" />
            <mxPoint x="2820" y="1180" as="targetPoint" />
            <Array as="points">
              <mxPoint x="2320" y="1213" />
              <mxPoint x="3000" y="1333" />
            </Array>
          </mxGeometry>
        </mxCell>
        <mxCell id="L4PsidqdgJCxc6JKoqgF-295" value="" style="endArrow=block;endSize=16;endFill=0;html=1;rounded=0;entryX=0.495;entryY=1.265;entryDx=0;entryDy=0;entryPerimeter=0;exitX=0;exitY=0.5;exitDx=0;exitDy=0;" edge="1" parent="1" source="FDrHorXSiLE-RwHZ9RLK-45" target="L4PsidqdgJCxc6JKoqgF-185">
          <mxGeometry x="0.4481" y="85" width="160" relative="1" as="geometry">
            <mxPoint x="2720" y="1460" as="sourcePoint" />
            <mxPoint x="2880" y="1460" as="targetPoint" />
            <Array as="points">
              <mxPoint x="2118" y="1489" />
            </Array>
            <mxPoint as="offset" />
          </mxGeometry>
        </mxCell>
        <mxCell id="L4PsidqdgJCxc6JKoqgF-296" value="" style="endArrow=none;html=1;rounded=0;exitX=1;exitY=0.5;exitDx=0;exitDy=0;entryX=0;entryY=0.5;entryDx=0;entryDy=0;" edge="1" parent="1" source="FDrHorXSiLE-RwHZ9RLK-40" target="FDrHorXSiLE-RwHZ9RLK-113">
          <mxGeometry width="50" height="50" relative="1" as="geometry">
            <mxPoint x="3110" y="1510" as="sourcePoint" />
            <mxPoint x="3160" y="1460" as="targetPoint" />
          </mxGeometry>
        </mxCell>
        <mxCell id="L4PsidqdgJCxc6JKoqgF-297" value="" style="endArrow=none;html=1;rounded=0;exitX=0.523;exitY=1.073;exitDx=0;exitDy=0;exitPerimeter=0;entryX=0;entryY=0.5;entryDx=0;entryDy=0;" edge="1" parent="1" source="L4PsidqdgJCxc6JKoqgF-202" target="FDrHorXSiLE-RwHZ9RLK-114">
          <mxGeometry width="50" height="50" relative="1" as="geometry">
            <mxPoint x="2490" y="1420" as="sourcePoint" />
            <mxPoint x="2540" y="1370" as="targetPoint" />
            <Array as="points">
              <mxPoint x="1778" y="1710" />
              <mxPoint x="2880" y="1710" />
              <mxPoint x="2880" y="1385" />
            </Array>
          </mxGeometry>
        </mxCell>
        <mxCell id="L4PsidqdgJCxc6JKoqgF-298" value="" style="endArrow=none;html=1;rounded=0;exitX=0.479;exitY=1.121;exitDx=0;exitDy=0;exitPerimeter=0;entryX=0;entryY=0.5;entryDx=0;entryDy=0;" edge="1" parent="1" source="L4PsidqdgJCxc6JKoqgF-200" target="L4PsidqdgJCxc6JKoqgF-206">
          <mxGeometry width="50" height="50" relative="1" as="geometry">
            <mxPoint x="2490" y="1420" as="sourcePoint" />
            <mxPoint x="2540" y="1370" as="targetPoint" />
            <Array as="points">
              <mxPoint x="1396" y="1760" />
              <mxPoint x="2960" y="1760" />
              <mxPoint x="2960" y="1419" />
            </Array>
          </mxGeometry>
        </mxCell>
        <mxCell id="L4PsidqdgJCxc6JKoqgF-299" value="" style="endArrow=none;html=1;rounded=0;exitX=1;exitY=0.5;exitDx=0;exitDy=0;entryX=0;entryY=0.5;entryDx=0;entryDy=0;" edge="1" parent="1" source="L4PsidqdgJCxc6JKoqgF-90" target="L4PsidqdgJCxc6JKoqgF-207">
          <mxGeometry width="50" height="50" relative="1" as="geometry">
            <mxPoint x="2260" y="1770" as="sourcePoint" />
            <mxPoint x="3040" y="1811" as="targetPoint" />
            <Array as="points">
              <mxPoint x="3040" y="1810" />
              <mxPoint x="3040" y="1445" />
            </Array>
          </mxGeometry>
        </mxCell>
        <mxCell id="L4PsidqdgJCxc6JKoqgF-300" value="" style="endArrow=none;html=1;rounded=0;exitX=1;exitY=0.5;exitDx=0;exitDy=0;entryX=0;entryY=0.5;entryDx=0;entryDy=0;" edge="1" parent="1" source="FDrHorXSiLE-RwHZ9RLK-254" target="L4PsidqdgJCxc6JKoqgF-208">
          <mxGeometry width="50" height="50" relative="1" as="geometry">
            <mxPoint x="1840" y="2650" as="sourcePoint" />
            <mxPoint x="3500" y="1570" as="targetPoint" />
            <Array as="points">
              <mxPoint x="3090" y="3241" />
              <mxPoint x="3090" y="1471" />
            </Array>
          </mxGeometry>
        </mxCell>
        <mxCell id="L4PsidqdgJCxc6JKoqgF-301" value="" style="endArrow=block;endSize=16;endFill=0;html=1;rounded=0;entryX=0.459;entryY=1.192;entryDx=0;entryDy=0;entryPerimeter=0;exitX=0;exitY=0.5;exitDx=0;exitDy=0;" edge="1" parent="1" source="L4PsidqdgJCxc6JKoqgF-272" target="L4PsidqdgJCxc6JKoqgF-87">
          <mxGeometry x="0.4481" y="85" width="160" relative="1" as="geometry">
            <mxPoint x="2170" y="1630" as="sourcePoint" />
            <mxPoint x="2128" y="1269" as="targetPoint" />
            <Array as="points">
              <mxPoint x="998" y="2171" />
            </Array>
            <mxPoint as="offset" />
          </mxGeometry>
        </mxCell>
        <mxCell id="L4PsidqdgJCxc6JKoqgF-302" value="" style="endArrow=block;endSize=16;endFill=0;html=1;rounded=0;exitX=0;exitY=0.5;exitDx=0;exitDy=0;entryX=1.006;entryY=0.111;entryDx=0;entryDy=0;entryPerimeter=0;" edge="1" parent="1" source="L4PsidqdgJCxc6JKoqgF-270" target="FDrHorXSiLE-RwHZ9RLK-194">
          <mxGeometry x="0.4481" y="85" width="160" relative="1" as="geometry">
            <mxPoint x="1224" y="2181" as="sourcePoint" />
            <mxPoint x="850" y="2130" as="targetPoint" />
            <Array as="points" />
            <mxPoint as="offset" />
          </mxGeometry>
        </mxCell>
      </root>
    </mxGraphModel>
  </diagram>
</mxfile>
